<svg xmlns="http://www.w3.org/2000/svg" viewBox="0 0 100 100" shape-rendering="crispEdges" id="froggi-6209025515957182838880032474051457283674091344888440477091446844814579522830164379" width="300" height="300"><g class="bg"><path stroke="#F3E8F8" d="M0 0h100M0 1h100M0 2h100M0 3h100M0 4h100M0 5h100M0 6h100M0 7h100M0 8h100M0 9h100M0 10h100M0 11h100M0 12h100M0 13h100M0 14h100M0 15h100M0 16h100M0 17h100M0 18h100M0 19h100M0 20h100M0 21h100M0 22h100M0 23h100M0 24h100M0 25h100M0 26h100M0 27h100M0 28h100M0 29h100M0 30h100M0 31h100M0 32h100M0 33h100M0 34h100M0 35h100M0 36h100M0 37h100M0 38h100M0 39h100M0 40h100M0 41h100M0 42h100M0 43h100M0 44h100M0 45h100M0 46h100M0 47h100M0 48h100M0 49h100M0 50h100M0 51h100M0 52h100M0 53h100M0 54h100M0 55h100M0 56h100M0 57h100M0 58h100M0 59h100M0 60h100M0 61h100M0 62h100M0 63h100M0 64h100M0 65h100M0 66h100M0 67h100M0 68h100M0 69h100M0 70h100M0 71h100M0 72h100M0 73h100M0 74h100M0 75h100M0 76h100M0 77h100M0 78h100M0 79h100M0 80h100M0 81h100M0 82h100M0 83h100M0 84h100M0 85h100M0 86h100M0 87h100M0 88h100M0 89h100M0 90h100M0 91h100M0 92h100M0 93h100M0 94h100M0 95h100M0 96h100M0 97h100M0 98h100M0 99h100"/></g><g class="body"><path stroke="#000000" d="M25 26h11m-13 1h2m11 0h3m33 0h8m-58 1h1m16 0h2m29 0h2m8 0h2m-61 1h1m19 0h1m27 0h1m12 0h1m-63 1h1m21 0h1m25 0h1m14 0h1m-65 1h1m9 0h5m9 0h1m23 0h1m7 0h5m4 0h1m-67 1h1m8 0h1m7 0h1m8 0h2m20 0h1m6 0h1m7 0h1m3 0h1m-68 1h1m7 0h1m9 0h1m9 0h20m6 0h1m9 0h1m3 0h1m-70 1h1m7 0h1m11 0h1m33 0h1m11 0h1m2 0h1m-70 1h1m6 0h1m45 0h1m16 0h1m-72 1h1m7 0h1m45 0h1m16 0h1m-72 1h1m6 0h1m45 0h1m18 0h1m-73 1h1m6 0h1m45 0h1m18 0h1m-74 1h1m7 0h1m15 0h1m29 0h1m15 0h1m2 0h1m-74 1h1m7 0h1m15 0h1m29 0h1m15 0h1m2 0h1m-74 1h1m7 0h2m14 0h1m29 0h2m14 0h1m2 0h1m-74 1h1m7 0h1m1 0h1m12 0h2m29 0h1m1 0h1m12 0h2m2 0h1m-74 1h1m7 0h1m2 0h1m10 0h1m1 0h1m29 0h1m2 0h1m10 0h1m1 0h1m2 0h1m-74 1h1m8 0h1m2 0h2m6 0h2m1 0h1m31 0h1m2 0h2m6 0h2m1 0h1m3 0h1m-74 1h1m8 0h1m4 0h6m3 0h1m31 0h1m4 0h6m3 0h1m2 0h1m-74 1h1m10 0h1m11 0h1m33 0h1m11 0h1m3 0h1m-74 1h1m11 0h1m9 0h1m35 0h1m9 0h1m4 0h1m-76 1h2m13 0h2m6 0h1m37 0h2m6 0h1m5 0h1m-78 1h2m17 0h6m40 0h6m6 0h1M8 50h2m77 0h3M7 51h1m82 0h2M6 52h1m85 0h1M6 53h1m86 0h1M5 54h1m52 0h1m11 0h1m23 0h1M5 55h1m53 0h1m9 0h1m24 0h1M5 56h1m89 0h1M5 57h1m89 0h1M5 58h1m89 0h1M5 59h1m89 0h1M5 60h1m89 0h1M5 61h1m89 0h1M5 62h1m88 0h1M5 63h1m88 0h1M6 64h1m86 0h1M6 65h1m86 0h1M6 66h1m86 0h1M6 67h1m85 0h1M7 68h1m84 0h1M7 69h1m83 0h1M7 70h1m82 0h1M7 71h1m81 0h1M8 72h1m79 0h1M8 73h1m79 0h1M9 74h1m77 0h1M9 75h1m76 0h1m-77 1h1m75 0h1m-77 1h1m74 0h1m-75 1h1m73 0h1m-75 1h1m72 0h1m-73 1h1m71 0h1m-73 1h1m70 0h1m-71 1h1m68 0h1m-70 1h1m67 0h1m-69 1h1m66 0h1m-67 1h1m64 0h1m-66 1h1m63 0h1m-64 1h1m61 0h2m-64 1h1m62 0h1m-65 1h2m63 0h1m-66 1h1m64 0h1m-67 1h1m66 0h1m-69 1h1m67 0h1m-69 1h1m68 0h1m-71 1h1m70 0h1m-72 1h1m71 0h1m-74 1h1m72 0h1M9 97h1m73 0h1M8 98h1m75 0h1M8 99h1m76 0h1"/><path stroke="#002CAB" d="M25 27h1m-3 1h1m10 4h1m45 0h1M15 46h1m-2 2h1m-3 1h1m-7 5h1m-1 1h1m-1 8h1m4 14h1m0 2h1m0 2h1m0 10h1m-2 1h1m-3 4h1m-2 1h1m-2 1h1m-1 1h1"/><path stroke="#107EE2" d="M26 27h2m-4 1h2m-2 1h1m15 0h1m-12 1h5m7 0h1m-8 1h2m6 0h1m37 0h1m-51 1h4m2 0h1m45 0h1m-51 1h1m2 0h1m1 0h1m43 0h1m1 0h1m-37 1h3m12 0h5m17 0h1m-20 1h1M15 47h1m69 0h2m-72 1h2m69 0h1m-74 1h5m-6 1h7m-7 1h9m-10 1h12M7 53h18M7 54h20M7 55h18M9 56h8m3 0h3m45 0h1m-58 1h5m5 0h3m65 0h2m-78 1h2m8 0h2m62 0h2m-75 1h1m9 0h3m58 0h2M6 60h1m19 0h5M6 61h2m21 0h9M6 62h3m27 0h3m10 0h3M7 63h2m43 0h4M7 64h4m45 0h5M8 65h4m49 0h1M9 66h5m-4 1h4m-2 1h3m-3 9h1m-1 1h6m-5 1h6m-6 1h6m-5 1h5m-5 1h5m-5 1h6m-4 1h4m-2 1h3m-1 1h2m-8 6h4m-5 1h6m-5 1h6m-8 1h1m3 0h5m-9 1h1m4 0h4m-10 1h3m4 0h4m-12 1h5m4 0h4m-13 1h6m4 0h3"/><path stroke="#2DB5FF" d="M28 27h4m-6 1h2m50 0h2m-55 1h2m12 0h1m38 0h4m-54 1h1m49 0h5m-2 1h3m-1 1h2m-52 1h2m49 0h2m-36 1h5m30 0h1m-38 1h6m9 0h2m1 0h1m-19 1h5m12 0h2m-18 1h4m13 0h1m-18 1h5m-5 1h5m-5 1h5m-5 1h5m-5 1h7m-9 1h12m-17 1h18m-20 1h22m-23 1h8m5 0h12m-26 1h7m9 0h8m-24 1h7m39 0h2m-48 1h6m39 0h4m-48 1h5m38 0h5m-5 1h2m-57 3h1m-3 1h8m-10 1h15m28 0h2m1 0h2m-47 1h15m15 0h7m3 0h8m16 0h1m-64 1h15m11 0h21m14 0h1m-60 1h13m10 0h22m-41 1h9m9 0h23m-34 1h2m12 0h19m-15 1h10m-6 1h4"/><path stroke="#2DB5FF" d="M32 27h2m39 1h1m-3 1h1m-48 1h4m-5 1h4m41 0h1m5 0h1m-52 1h3m41 0h2m3 0h1m-50 1h2m42 0h2m2 0h1m7 0h2m-59 1h2m9 0h1m1 0h1m2 0h1m5 0h2m9 0h5m7 0h4m8 0h1m1 0h1m-60 1h2m3 0h1m5 0h1m2 0h1m2 0h1m4 0h4m19 0h3m3 0h1m5 0h1m2 0h1m2 0h2m-65 1h2m2 0h2m5 0h1m3 0h1m1 0h2m3 0h4m19 0h3m2 0h2m5 0h1m3 0h1m2 0h1m-66 1h2m2 0h3m5 0h1m3 0h2m1 0h9m18 0h2m2 0h3m5 0h1m3 0h2m1 0h2m-67 1h2m2 0h3m5 0h1m4 0h1m1 0h9m18 0h2m2 0h3m5 0h1m4 0h1m1 0h2m-67 1h2m2 0h3m5 0h1m4 0h1m1 0h9m5 0h1m13 0h1m2 0h3m5 0h1m4 0h1m2 0h1m-67 1h2m2 0h3m5 0h1m4 0h1m1 0h9m5 0h2m12 0h1m2 0h3m5 0h1m4 0h1m-64 1h2m2 0h3m5 0h1m4 0h1m1 0h9m5 0h3m14 0h3m5 0h1m4 0h1m-63 1h1m3 0h2m5 0h1m6 0h9m7 0h2m14 0h2m5 0h1m-58 1h1m4 0h2m4 0h1m6 0h7m26 0h2m4 0h1m-58 1h2m1 0h1m3 0h5m5 0h3m27 0h1m1 0h1m3 0h5m-58 1h2m1 0h2m10 0h1m1 0h1m28 0h2m1 0h2m10 0h1m-61 1h2m1 0h2m8 0h1m1 0h1m8 0h5m12 0h7m1 0h2m8 0h1m-60 1h1m3 0h2m6 0h1m1 0h1m7 0h9m8 0h10m1 0h2m6 0h1m-58 1h1m4 0h6m1 0h2m7 0h28m2 0h6m2 0h1m-59 1h1m9 0h3m6 0h31m7 0h1m-57 1h1m3 0h9m5 0h38m-54 1h54m-54 1h53m-53 1h30m4 0h8m3 0h6m-51 1h28m3 0h1m2 0h7m3 0h6m-45 1h25m3 0h8m2 0h7m15 0h1m-56 1h21m3 0h4m5 0h8m-40 1h15m7 0h3m8 0h9m-41 1h11m21 0h11m-43 1h10m22 0h13m-45 1h9m23 0h6m-38 1h3m1 0h1m2 0h1m23 0h5m-10 1h7m-9 1h7m-4 1h1"/><path stroke="#107EE2" d="M34 27h2m2 1h1m33 0h1m-50 1h1m46 0h1m-49 1h2m45 0h1m-49 1h2m4 0h2m-9 1h3m3 0h1m2 0h1m13 0h1m31 0h5m-61 1h4m2 0h1m1 0h5m12 0h2m20 0h1m6 0h6m-60 1h3m2 0h1m1 0h7m3 0h1m9 0h1m13 0h2m10 0h7m3 0h1m-65 1h4m3 0h2m1 0h5m4 0h1m33 0h2m1 0h5m4 0h1m-66 1h4m3 0h1m2 0h5m38 0h1m2 0h5m6 0h1m-69 1h4m3 0h1m3 0h5m37 0h1m3 0h5m-62 1h4m3 0h1m3 0h5m37 0h1m3 0h5m-62 1h4m3 0h1m3 0h5m37 0h1m3 0h5m7 0h1m-71 1h5m3 0h1m3 0h5m37 0h1m3 0h5m7 0h2m-72 1h5m7 0h5m41 0h5m7 0h2m-72 1h6m2 0h1m3 0h5m37 0h1m3 0h5m7 0h2m-72 1h6m2 0h2m3 0h4m37 0h2m3 0h4m7 0h2m-72 1h6m4 0h1m45 0h1m12 0h3m-72 1h6m5 0h1m8 0h1m36 0h1m8 0h1m2 0h2m-71 1h7m5 0h8m38 0h8m2 0h3m-71 1h7m6 0h6m40 0h6m2 0h2m-68 1h7m58 0h1m-65 1h7m3 0h1m52 0h1m-71 1h1m7 0h7M9 51h3m9 0h7m61 0h1M8 52h3m12 0h5m63 0h1m-67 1h3m64 0h1m-37 1h1m12 0h1m1 0h1m21 0h1M6 56h3m50 0h3m28 0h2M6 57h5m-5 1h7m-7 1h8m-7 1h7m64 0h7M8 61h6m62 0h3M9 62h5m25 0h10m24 0h3M9 63h5m57 0h3m-63 1h3m54 0h3M7 65h1m4 0h2m48 0h7M7 66h2m-1 1h2m-2 1h4m-4 1h7m-7 1h7m-6 1h6m-6 1h6m-5 1h6m-6 1h6m-5 1h6m-6 1h6m-4 1h5m-3 7h1m-1 1h3m-2 1h4m-4 1h6m-5 1h6m-6 1h6m-5 1h6m-9 1h2m2 0h5m-6 1h6m-5 1h1m1 0h4m-13 1h2m6 0h5m-12 1h3m5 0h4m-12 1h4m4 0h5m-12 1h4m4 0h4m-11 1h4m4 0h3m-10 1h4m3 0h3"/><path stroke="#7ADAFF" d="M28 28h5m43 0h2m-51 1h8m42 0h1m-44 1h4m2 0h1m-5 1h3m2 0h1m-5 1h3m1 0h1m-4 1h1m15 2h1m7 0h1m-10 1h1m8 0h3m-12 1h1m8 0h1m1 0h2m-4 1h1m2 0h2m-5 1h1m-2 1h3m-4 1h5m1 0h1m-8 1h7m-7 1h7m-6 1h5m-3 1h3m19 6h3m-6 1h5m-5 1h5m-5 1h4m-4 1h4m-3 1h4m-4 1h6m-5 1h3m-37 3h3m0 1h1m1 0h2m0 1h1m1 0h2m1 1h2"/><path stroke="#7ADAFF" d="M33 28h5m36 0h2m-41 1h4m37 0h1m-7 1h1m3 0h4m-9 1h5m-32 1h1m26 0h3m-33 1h5m25 0h2m-37 1h1m4 0h5m36 0h1m-47 1h2m4 0h4m11 0h7m18 0h2m-48 1h3m4 0h3m10 0h8m18 0h3m-49 1h3m17 0h8m18 0h3m-49 1h1m1 0h2m16 0h8m18 0h1m1 0h2m-50 1h4m17 0h7m5 0h1m12 0h4m-50 1h1m1 0h2m18 0h5m6 0h1m12 0h1m1 0h2m-50 1h1m1 0h2m19 0h3m7 0h2m11 0h1m1 0h2m-50 1h1m1 0h1m21 0h1m7 0h3m11 0h1m1 0h1m-49 1h1m31 0h3m11 0h1m-16 1h4m-4 1h3m-44 2h2m-1 1h2m0 1h1m-1 1h3m57 1h2m-3 1h1m-29 1h2m1 0h1m8 0h3m6 0h2m-21 1h1m17 0h3m4 0h1m-8 1h3m4 0h1m4 0h3m-14 1h3m4 0h1m2 0h1m-9 1h1m-39 4h1m1 0h2m1 0h1m15 3h3"/><path stroke="#002CAB" d="M22 29h1m-2 1h1m-2 1h1m-2 1h1m8 0h1m45 0h1m-57 2h1m19 1h1m45 0h1m-68 1h1m20 0h1m45 0h1m-46 1h1m45 0h1m-47 1h1m45 0h1m-70 1h1m21 4h1m45 0h1m-48 1h1m45 0h1m-56 1h1m6 0h1m38 0h1m6 0h1m-72 5h1m-3 1h1m-2 1h1m49 2h1m0 1h1m1 0h1m9 0h1M7 67h1m0 4h1m0 2h1m0 2h1m3 9h1m0 2h1m0 2h1m-1 1h1m-2 1h3m-1 1h2m1 2h1"/><path stroke="#A7FAFF" d="M72 29h4m-5 1h3m-39 8h1m45 0h1m-47 2h1m45 0h1m-47 1h1m45 0h1m-47 1h1m1 0h1m43 0h1m1 0h1m-49 1h2m44 0h2m-49 1h1m45 0h1m-55 5h1m60 3h4m-31 1h1m25 0h6m-31 1h1m24 0h7m-7 1h4m-3 1h2m-26 8h1"/><path stroke="#A7FAFF" d="M38 30h2m-1 1h2m-1 1h1m22 5h1m-1 1h2m-2 1h4m-3 1h3m-2 1h1M53 62h1m3 1h1"/><path stroke="#38394B" d="M17 56h1m75 0h1m-78 1h3m75 0h1m-80 1h4m2 0h1m68 0h1m3 0h1m-80 1h3m70 0h1m5 0h1m-81 1h4m6 0h2m60 0h1m-73 1h4m8 0h2m52 0h1m-67 1h4m11 0h6m42 0h1m-64 1h4m20 0h12m25 0h1m17 0h1m-80 1h4m35 0h2m17 0h1m-59 1h4m39 0h3m10 0h1m21 0h1m-79 1h4m45 0h1m3 0h1m23 0h1m-78 1h5m72 0h1m-77 1h4m-4 1h4m36 0h5m18 0h5m6 0h2m-76 1h4m33 0h11m14 0h13m-75 1h5m31 0h18m5 0h14m-73 1h5m32 0h20m4 0h10m-70 1h5m34 0h9m11 0h10m-69 1h5m36 0h7m9 0h10m-66 1h5m36 0h7m7 0h10m-65 1h6m36 0h8m4 0h11m-64 1h6m35 0h22m-63 1h8m34 0h21m-62 1h14m28 0h20m-62 1h16m27 0h18m-61 1h20m24 0h16m-59 1h22m21 0h16m-59 1h24m17 0h17m-57 1h27m9 0h21m-56 1h55m-55 1h55m-54 1h53m-52 1h51m-51 1h50m-48 1h46m-45 1h43m-43 1h39m-38 1h22m1 0h1m2 0h1m-26 1h27m-27 1h31m-31 1h33m-33 1h35m-35 1h36m-36 1h37"/><path stroke="#202135" d="M18 56h2m72 0h1m1 0h1m-76 1h2m70 0h2m-71 1h1m66 0h1m-67 1h1m63 0h1m-3 1h1m8 0h1m-67 1h1m50 0h1m14 0h1m-60 1h1m40 0h1m-27 1h2m22 0h1m-20 1h1m4 1h1m8 0h1m-6 1h3m25 0h1m-2 2h1m-4 3h1m-17 1h4m10 0h1m-23 1h11m-11 1h9m10 0h1m1 0h1m-21 1h7m10 0h4m-19 1h4m11 0h4m-5 1h4m-4 1h4m-4 1h3m-4 1h4m-5 1h4m-64 1h1m59 0h3m-4 1h3m-61 1h1m57 0h2m-59 1h1m55 0h2m-2 1h1m-56 1h1m53 0h1m-54 1h1m51 0h2m-54 1h1m50 0h1m-51 1h2m46 0h1m2 0h4m-55 1h3m43 0h1m2 0h7m-56 1h3m39 0h2m3 0h9m-55 1h3m22 0h1m1 0h2m1 0h9m4 0h13m-56 1h4m27 0h26m-57 1h4m31 0h23m-57 1h3m33 0h21m-57 1h3m35 0h19m-57 1h3m36 0h19m-58 1h3m37 0h19"/><path stroke="#525578" d="M93 57h1m-75 1h2m70 0h3m-76 1h5m66 0h5m-76 1h6m63 0h7m-76 1h8m55 0h13m-76 1h11m49 0h16m-76 1h20m38 0h17m-75 1h35m20 0h20m-75 1h39m14 0h21m-74 1h45m5 0h23m-72 1h72m-72 1h72m-72 1h36m5 0h18m5 0h6m-70 1h33m11 0h14m-57 1h31m18 0h5m-54 1h32m-31 1h34m-34 1h36m-35 1h36m-35 1h36m-35 1h35m-33 1h34m-27 1h28m-26 1h27m-23 1h24m-21 1h21m-19 1h17m-13 1h9"/><path stroke="#111221" d="M71 64h1m15 8h1m-3 1h3m-4 1h1m1 0h1M77 88h1m-3 1h4m-6 1h2m-4 1h2m-5 1h3m-7 1h4"/></g><g class="expression"><path stroke="#000000" d="M17 55h4m-1 1h1m69 0h2m-71 1h2m66 0h2m-68 1h1m63 0h2m-65 1h2m59 0h2m-61 1h3m50 0h6m-56 1h7m40 0h3m-43 1h16m22 0h2m-24 1h4m16 0h2m-18 1h5m8 0h2m-10 1h8"/></g><g class="eyes"><path stroke="#000000" d="M23 39h17m29 0h17m-63 1h1m15 0h1m29 0h1m15 0h1m-63 1h1m15 0h1m29 0h1m15 0h1m-63 1h1m15 0h1m29 0h1m15 0h1m-63 1h1m15 0h1m29 0h1m15 0h1m-62 1h1m13 0h1m31 0h1m13 0h1m-61 1h1m13 0h1m31 0h1m13 0h1m-60 1h1m11 0h1m33 0h1m11 0h1m-58 1h1m9 0h1m35 0h1m9 0h1m-56 1h2m6 0h1m37 0h2m6 0h1m-53 1h6m40 0h6"/><path stroke="#2DE7FF" d="M24 40h1m13 0h1m31 0h1m13 0h1m-61 1h1m13 0h1m31 0h1m13 0h1m-60 3h1m45 0h1m-37 3h1m45 0h1m-53 1h5m41 0h5"/><path stroke="#7AFFFD" d="M25 40h6m40 0h6m-52 1h7m39 0h7m-53 1h7m6 0h1m32 0h7m6 0h1m-60 1h7m5 0h2m32 0h7m5 0h2m-59 1h7m3 0h2m34 0h7m3 0h2m-58 1h12m34 0h12m-57 1h10m36 0h10m-55 1h7m39 0h7"/><path stroke="#2DE7FF" d="M31 40h1m45 0h1m-41 2h1m45 0h1m-52 1h1m45 0h1"/><path stroke="#00A7F2" d="M32 40h1m4 0h1m40 0h1m4 0h1m-52 1h1m4 0h1m40 0h1m4 0h1m-52 1h1m45 0h1m-46 2h1m45 0h1"/><path stroke="#000000" d="M33 40h4m42 0h4m-50 1h4m42 0h4m-50 1h4m42 0h4m-50 1h4m42 0h4m-49 1h2m44 0h2"/><path stroke="#00A7F2" d="M24 42h1m45 0h1m-47 1h1m45 0h1m-46 2h1m45 0h1m-46 1h1m45 0h1m-46 1h1m45 0h1m-40 1h1m45 0h1"/></g><g class="hat"/><g class="eyewear"><path stroke="#000000" d="M43 38h6m19 0h6m-33 1h2m6 0h2m15 0h2m6 0h2m-36 1h1m10 0h1m13 0h1m10 0h1m-38 1h1m12 0h1m11 0h1m12 0h1m-39 1h1m12 0h1m11 0h1m12 0h1m-40 1h1m14 0h1m9 0h1m14 0h1m-41 1h1m14 0h1m1 0h7m1 0h1m14 0h1m-41 1h1m14 0h2m7 0h2m14 0h1m-41 1h1m18 0h4m17 0h1m-41 1h1m16 0h2m4 0h2m15 0h1m-41 1h1m14 0h2m8 0h1m14 0h1m-40 1h1m12 0h1m11 0h1m12 0h1m-39 1h1m12 0h1m11 0h1m12 0h1m-38 1h1m10 0h1m13 0h1m10 0h1m-36 1h2m6 0h2m15 0h2m6 0h2m-33 1h6m19 0h6"/><path stroke="#38394B" d="M43 39h1m4 0h1m19 0h1m4 0h1m-32 1h1m6 0h1m17 0h1m6 0h1m-34 1h1m8 0h1m15 0h1m8 0h1m-36 1h1m10 0h1m13 0h1m10 0h1m-38 1h1m12 0h1m11 0h1m12 0h1m-23 2h1m-3 1h1m2 0h1m4 0h1m-8 1h1m8 0h1m-25 1h1m24 0h1m-25 1h1m10 0h1m13 0h1m10 0h1m-36 1h1m24 0h1m-25 1h1m6 0h1m17 0h1m6 0h1m-32 1h1m4 0h1m19 0h1m4 0h1"/><path stroke="#525578" d="M44 39h4m21 0h4m-32 1h1m8 0h1m15 0h1m8 0h1m-36 1h1m10 0h1m13 0h1m10 0h1m-38 3h1m12 0h1m11 0h1m12 0h1m-39 1h1m12 0h1m3 0h6m2 0h1m12 0h1m-39 1h1m12 0h1m1 0h2m6 0h3m12 0h1m-39 1h1m12 0h2m10 0h1m12 0h1m-26 1h1m24 0h1m-38 2h1m10 0h1m13 0h1m10 0h1m-36 1h1m8 0h1m15 0h1m8 0h1m-32 1h4m21 0h4"/><path stroke="#C7093E" d="M43 40h1m4 0h1m19 0h1m4 0h1m-28 1h2m23 0h2m-28 1h5m20 0h5m-35 1h1m3 0h5m2 0h1m13 0h1m3 0h5m2 0h1m-34 1h5m20 0h5m-31 1h5m20 0h5m-31 1h5m20 0h5m-30 1h4m21 0h4m-30 1h4m7 0h1m13 0h4m7 0h1m-35 1h1m24 0h1m-18 1h1m24 0h1m-33 1h1m4 0h1m19 0h1m4 0h1"/><path stroke="#FF66D2" d="M44 40h3m22 0h3m-30 1h2m23 0h2m-28 1h2m23 0h2m-27 1h1m24 0h1m-16 3h1m24 0h1m-27 1h1m24 0h1m-27 1h1m24 0h1m-27 1h1m24 0h1m-27 1h1m24 0h1m-27 1h1m24 0h1"/><path stroke="#FA378E" d="M47 40h1m24 0h1m-28 1h1m2 0h2m20 0h1m2 0h2m-31 1h1m5 0h1m18 0h1m5 0h1m-33 1h1m5 0h1m18 0h1m5 0h1m-33 1h1m5 0h1m18 0h1m5 0h1m-33 1h1m5 0h1m18 0h1m5 0h1m-33 1h1m5 0h1m18 0h1m5 0h1m-32 1h1m4 0h1m5 0h1m13 0h1m4 0h1m5 0h1m-33 1h1m5 0h1m18 0h1m5 0h1m-35 1h1m1 0h1m5 0h2m15 0h1m1 0h1m5 0h2m-34 1h1m5 0h2m17 0h1m5 0h2m-28 1h1m24 0h1"/><path stroke="#FF97F6" d="M44 41h1m24 0h1m-27 1h1m24 0h1m-27 1h1m7 0h1m16 0h1m7 0h1m-36 1h2m7 0h1m1 0h1m13 0h2m7 0h1m1 0h1m-37 1h1m7 0h1m1 0h2m13 0h1m7 0h1m1 0h2m-30 1h1m1 0h2m21 0h1m1 0h2m-30 1h1m1 0h2m21 0h1m1 0h2m-30 1h1m1 0h2m21 0h1m1 0h2m-30 1h1m1 0h2m21 0h1m1 0h2m-30 1h1m1 0h2m21 0h1m1 0h2m-28 1h2m23 0h2"/><path stroke="#FEFFEF" d="M50 44h1m24 0h1m-27 1h1m24 0h1m-27 1h1m24 0h1m-27 1h1m24 0h1m-27 1h1m24 0h1m-27 1h1m24 0h1m-27 1h1m24 0h1"/></g><g class="clothes"><path stroke="#000000" d="M3 82h4m-4 1h1m3 0h4m-8 1h1m7 0h2m-9 1h1m8 0h1M4 86h1m10 0h2M5 87h1m7 0h1m3 0h2m60 0h1M6 88h1m2 0h5m5 0h3m54 0h1m2 0h1M7 89h2m13 0h4m49 0h1m3 0h1M6 90h1m8 0h1m10 0h4m43 0h2m4 0h1M5 91h1m10 0h1m13 0h5m35 0h3m6 0h1M5 92h1m11 0h1m17 0h8m22 0h5m9 0h1M4 93h1m13 0h1m24 0h22m14 0h1M4 94h1m4 0h2m8 0h1m59 0h1M4 95h5m11 0h1m57 0h1m-58 1h1m56 0h1m-57 1h1m54 0h1m-55 1h2m52 0h1m-53 1h2m49 0h1"/><path stroke="#064DA6" d="M4 83h3m-3 1h6m-5 1h3m-3 1h4m-3 1h4m-3 1h2m0 1h2m1 1h2m-4 1h3m-4 1h3m6 0h1m5 0h3m7 0h1m41 0h1m1 0h1M9 93h3m14 0h3m36 0h1m9 0h1m1 0h2m-51 1h1m45 0h1m1 0h1m1 0h1m-45 1h3m38 0h2m-53 1h3m7 0h5m35 0h1m2 0h1m-55 1h1"/><path stroke="#183257" d="M10 84h1m-1 1h3m-1 1h2m-4 1h1m3 0h3m-3 1h5m58 0h1m-63 1h4m57 0h2M7 90h2m7 0h3m5 0h2m49 0h1m1 0h1M6 91h2m9 0h2m5 0h5m49 0h1M6 92h3m10 0h2m12 0h1m36 0h1M5 93h4m10 0h2m20 0h2m-23 1h2m7 0h2m-10 1h3m6 0h4m39 0h1m-52 1h2m9 0h1m5 0h3m-18 1h5m7 0h3m5 0h5m19 0h1m-44 1h4m5 0h2m8 0h5m5 0h5m17 0h1m-50 1h2m5 0h5m5 0h5m5 0h5m5 0h5m6 0h1"/><path stroke="#00247B" d="M8 85h2m-1 1h1m1 3h3m-5 1h3m-3 1h1m67 1h1m-54 1h2m50 0h1m-53 1h4m47 0h1m-52 1h5m45 0h1m-48 1h2"/><path stroke="#071746" d="M10 86h2m-1 1h2m65 0h1m-1 1h1m-1 1h1m-1 1h1M8 91h1m68 0h1m-57 1h3m-3 1h3m-2 1h2m5 1h1m-1 1h4m39 0h2m-40 1h2m0 1h3m25 0h5"/><path stroke="#202432" d="M19 89h3m-2 1h4m-5 1h1m2 0h2m5 0h1m43 0h1M5 94h4m20 3h3m7 0h5m5 0h2m18 0h1m2 0h2m-45 1h5m5 0h5m5 0h5m5 0h4m7 0h3m-44 1h5m8 0h2m5 0h5m5 0h5m5 0h2"/><path stroke="#101427" d="M19 90h1m0 1h2m10 6h2m36 0h2m-9 1h1m5 0h1m-31 1h3"/><path stroke="#294079" d="M76 90h1m-3 1h3m-48 1h4m38 0h3m-45 1h5m5 0h2m28 0h5m-43 1h3m5 0h5m5 0h5m5 0h5m5 0h5m-35 1h5m5 0h5m5 0h5m5 0h4m-31 1h2m5 0h5m5 0h5m5 0h3m-18 1h5m5 0h4m6 0h3m-3 1h2m-2 1h1"/><path stroke="#225FD1" d="M27 92h2m45 0h2m-42 1h5m27 0h3m5 0h1m-41 1h5m5 0h5m5 0h5m5 0h5m8 0h1m-41 1h2m5 0h5m5 0h5m5 0h5m8 0h1m-34 1h5m5 0h5m5 0h5m6 0h2"/><path stroke="#2B3352" d="M51 97h3m5 0h5m9 1h1m-3 1h3"/></g><style/></svg>