<svg xmlns="http://www.w3.org/2000/svg" viewBox="0 0 100 100" shape-rendering="crispEdges" id="froggi-10201104192985108256592278657723806378641485830685587540088898372471768238230406366" width="300" height="300"><g class="animated-bg"><path stroke="#FF71C5" d="M0 0h3M98 0h2M0 1h2M99 1h1M0 2h2M99 2h1M0 3h1M45 6h11M41 7h19M39 8h6M56 8h6M37 9h5M59 9h5M35 10h4M62 10h4M33 11h4M64 11h4M32 12h3M66 12h3M31 13h3M67 13h3M30 14h3M68 14h3M29 15h3M69 15h3M28 16h3M70 16h3M27 17h3M71 17h3M26 18h3M72 18h3M26 19h2M73 19h2M25 20h2M74 20h2M25 21h2M47 21h7M74 21h2M24 22h2M44 22h3M54 22h3M75 22h2M24 23h2M42 23h2M57 23h2M75 23h2M23 24h2M41 24h2M58 24h2M76 24h2M23 25h2M40 25h1M60 25h1M76 25h2M22 26h3M39 26h1M61 26h1M76 26h3M22 27h2M38 27h2M61 27h2M77 27h2M22 28h2M38 28h1M62 28h1M77 28h2M22 29h2M37 29h1M63 29h1M77 29h2M21 30h2M37 30h1M63 30h1M78 30h2M21 31h2M37 31h1M63 31h1M78 31h2M21 32h2M36 32h1M64 32h1M78 32h2M21 33h2M36 33h1M49 33h3M64 33h1M78 33h2M21 34h2M36 34h1M48 34h1M52 34h1M64 34h1M78 34h2M21 35h2M36 35h1M48 35h1M52 35h1M64 35h1M78 35h2M21 36h2M36 36h1M48 36h1M52 36h1M64 36h1M78 36h2M21 37h2M36 37h1M49 37h3M64 37h1M78 37h2M21 38h2M36 38h1M64 38h1M78 38h2M21 39h2M37 39h1M63 39h1M78 39h2M21 40h2M37 40h1M63 40h1M78 40h2M22 41h2M37 41h1M63 41h1M77 41h2M22 42h2M38 42h1M62 42h1M77 42h2M22 43h2M38 43h2M61 43h2M77 43h2M22 44h3M39 44h1M61 44h1M76 44h3M23 45h2M40 45h1M60 45h1M76 45h2M23 46h2M41 46h2M58 46h2M76 46h2M24 47h2M42 47h2M57 47h2M75 47h2M24 48h2M44 48h3M54 48h3M75 48h2M25 49h2M47 49h7M74 49h2"/><path stroke="#FF97F6" d="M3 0h6M92 0h6M2 1h7M92 1h7M2 2h6M93 2h6M1 3h6M94 3h6M0 4h6M95 4h5M0 5h6M95 5h5M0 6h5M96 6h4M0 7h4M97 7h3M0 8h4M45 8h11M97 8h3M0 9h3M42 9h17M98 9h2M0 10h3M39 10h6M56 10h6M98 10h2M0 11h2M37 11h5M59 11h5M99 11h1M0 12h1M35 12h4M62 12h4M99 12h1M0 13h1M34 13h4M63 13h4M0 14h1M33 14h3M65 14h3M32 15h3M66 15h3M31 16h2M68 16h2M30 17h2M69 17h2M29 18h2M70 18h2M28 19h3M70 19h3M27 20h3M71 20h3M27 21h2M72 21h2M26 22h3M47 22h7M72 22h3M26 23h2M44 23h3M54 23h3M73 23h2M25 24h2M43 24h2M56 24h2M74 24h2M25 25h2M41 25h2M58 25h2M74 25h2M25 26h2M40 26h2M59 26h2M74 26h2M24 27h2M40 27h1M60 27h1M75 27h2M24 28h2M39 28h1M61 28h1M75 28h2M24 29h2M38 29h2M61 29h2M75 29h2M23 30h2M38 30h1M62 30h1M76 30h2M23 31h2M38 31h1M62 31h1M76 31h2M23 32h2M37 32h1M63 32h1M76 32h2M23 33h2M37 33h1M63 33h1M76 33h2M23 34h2M37 34h1M49 34h3M63 34h1M76 34h2M23 35h2M37 35h1M49 35h1M51 35h1M63 35h1M76 35h2M23 36h2M37 36h1M49 36h3M63 36h1M76 36h2M23 37h2M37 37h1M63 37h1M76 37h2M23 38h2M37 38h1M63 38h1M76 38h2M23 39h2M38 39h1M62 39h1M76 39h2M23 40h2M38 40h1M62 40h1M76 40h2M24 41h2M38 41h2M61 41h2M75 41h2M24 42h2M39 42h1M61 42h1M75 42h2M24 43h2M40 43h1M60 43h1M75 43h2M25 44h2M40 44h2M59 44h2M74 44h2M25 45h2M41 45h2M58 45h2M74 45h2M25 46h2M43 46h2M56 46h2M74 46h2M26 47h2M44 47h3M54 47h3M73 47h2M26 48h3M47 48h7M72 48h3M27 49h2M72 49h2"/><path stroke="#FEFFEF" d="M9 0h6M86 0h6M9 1h5M87 1h5M8 2h5M88 2h5M7 3h5M89 3h5M6 4h5M90 4h5M6 5h5M90 5h5M5 6h5M91 6h5M4 7h5M92 7h5M4 8h4M93 8h4M3 9h5M93 9h5M3 10h4M45 10h11M94 10h4M2 11h5M42 11h17M94 11h5M1 12h5M39 12h7M55 12h7M95 12h4M1 13h5M38 13h4M59 13h4M95 13h5M1 14h4M36 14h4M61 14h4M96 14h4M0 15h5M35 15h3M63 15h3M96 15h4M0 16h4M33 16h4M64 16h4M97 16h3M0 17h4M32 17h3M66 17h3M97 17h3M0 18h3M31 18h3M67 18h3M98 18h2M0 19h3M31 19h2M68 19h2M98 19h2M0 20h3M30 20h2M69 20h2M98 20h2M0 21h2M29 21h3M69 21h3M99 21h1M0 22h2M29 22h2M70 22h2M99 22h1M0 23h2M28 23h2M47 23h7M71 23h2M99 23h1M0 24h1M27 24h3M45 24h2M54 24h2M71 24h3M0 25h1M27 25h2M43 25h2M56 25h2M72 25h2M0 26h1M27 26h2M42 26h1M58 26h1M72 26h2M0 27h1M26 27h2M41 27h1M59 27h1M73 27h2M0 28h1M26 28h2M40 28h1M60 28h1M73 28h2M26 29h2M40 29h1M60 29h1M73 29h2M25 30h3M39 30h1M61 30h1M73 30h3M25 31h2M39 31h1M61 31h1M74 31h2M25 32h2M38 32h1M62 32h1M74 32h2M25 33h2M38 33h1M62 33h1M74 33h2M25 34h2M38 34h1M62 34h1M74 34h2M25 35h2M38 35h1M50 35h1M62 35h1M74 35h2M25 36h2M38 36h1M62 36h1M74 36h2M25 37h2M38 37h1M62 37h1M74 37h2M25 38h2M38 38h1M62 38h1M74 38h2M25 39h2M39 39h1M61 39h1M74 39h2M25 40h3M39 40h1M61 40h1M73 40h3M26 41h2M40 41h1M60 41h1M73 41h2M26 42h2M40 42h1M60 42h1M73 42h2M26 43h2M41 43h1M59 43h1M73 43h2M0 44h1M27 44h2M42 44h1M58 44h1M72 44h2M0 45h1M27 45h2M43 45h2M56 45h2M72 45h2M0 46h1M27 46h3M45 46h2M54 46h2M71 46h3M0 47h1M28 47h2M47 47h7M71 47h2M0 48h1M29 48h2M70 48h2M0 49h2M29 49h3M69 49h3M99 49h1"/><path stroke="#FFB21E" d="M15 0h6M80 0h6M14 1h6M81 1h6M13 2h6M82 2h6M12 3h6M83 3h6M11 4h6M84 4h6M11 5h5M85 5h5M10 6h5M86 6h5M9 7h5M87 7h5M8 8h5M88 8h5M8 9h5M88 9h5M7 10h5M89 10h5M7 11h4M90 11h4M6 12h5M46 12h9M90 12h5M6 13h4M42 13h4M55 13h4M91 13h4M5 14h5M40 14h2M59 14h2M92 14h4M5 15h4M38 15h2M61 15h2M92 15h4M4 16h4M37 16h1M63 16h1M93 16h4M4 17h4M35 17h2M64 17h2M93 17h4M3 18h5M34 18h2M65 18h2M93 18h5M3 19h4M33 19h2M66 19h2M94 19h4M3 20h4M32 20h2M67 20h2M94 20h4M2 21h4M32 21h1M68 21h1M95 21h4M2 22h4M31 22h1M69 22h1M95 22h4M2 23h4M30 23h1M70 23h1M95 23h4M1 24h5M30 24h1M47 24h7M70 24h1M95 24h5M1 25h4M29 25h1M45 25h2M54 25h2M71 25h1M96 25h4M1 26h4M29 26h1M43 26h2M56 26h2M71 26h1M96 26h4M1 27h4M28 27h1M42 27h2M57 27h2M72 27h1M96 27h4M1 28h4M28 28h1M41 28h2M58 28h2M72 28h1M96 28h4M0 29h5M28 29h1M41 29h1M59 29h1M72 29h1M96 29h4M0 30h4M28 30h1M40 30h1M60 30h1M72 30h1M97 30h3M0 31h4M27 31h1M40 31h1M60 31h1M73 31h1M97 31h3M0 32h4M27 32h1M39 32h1M61 32h1M73 32h1M97 32h3M0 33h4M27 33h1M39 33h1M61 33h1M73 33h1M97 33h3M0 34h4M27 34h1M39 34h1M61 34h1M73 34h1M97 34h3M0 35h4M27 35h1M39 35h1M61 35h1M73 35h1M97 35h3M0 36h4M27 36h1M39 36h1M61 36h1M73 36h1M97 36h3M0 37h4M27 37h1M39 37h1M61 37h1M73 37h1M97 37h3M0 38h4M27 38h1M39 38h1M61 38h1M73 38h1M97 38h3M0 39h4M27 39h1M40 39h1M60 39h1M73 39h1M97 39h3M0 40h4M28 40h1M40 40h1M60 40h1M72 40h1M97 40h3M0 41h4M28 41h1M41 41h1M59 41h1M72 41h1M97 41h3M0 42h4M28 42h1M41 42h2M58 42h2M72 42h1M97 42h3M0 43h5M28 43h1M42 43h2M57 43h2M72 43h1M96 43h4M1 44h4M29 44h1M43 44h2M56 44h2M71 44h1M96 44h4M1 45h4M29 45h1M45 45h2M54 45h2M71 45h1M96 45h4M1 46h4M30 46h1M47 46h7M70 46h1M96 46h4M1 47h4M30 47h1M70 47h1M96 47h4M1 48h5M31 48h1M69 48h1M95 48h5M2 49h4M32 49h1M68 49h1M95 49h4"/><path stroke="#E97632" d="M21 0h4M76 0h4M20 1h3M78 1h3M19 2h3M79 2h3M18 3h3M80 3h3M17 4h3M81 4h3M16 5h3M82 5h3M15 6h3M83 6h3M14 7h3M84 7h3M13 8h3M85 8h3M13 9h3M85 9h3M12 10h3M86 10h3M11 11h3M87 11h3M11 12h3M87 12h3M10 13h3M46 13h9M88 13h3M10 14h2M42 14h4M55 14h4M89 14h3M9 15h3M40 15h3M58 15h3M89 15h3M8 16h3M38 16h2M61 16h2M90 16h3M8 17h3M37 17h2M62 17h2M90 17h3M8 18h2M36 18h1M64 18h1M91 18h2M7 19h3M35 19h1M65 19h1M91 19h3M7 20h3M34 20h1M66 20h1M91 20h3M6 21h3M33 21h1M67 21h1M92 21h3M6 22h3M32 22h1M68 22h1M92 22h3M6 23h3M31 23h2M68 23h2M92 23h3M6 24h2M31 24h1M69 24h1M93 24h2M5 25h3M30 25h1M47 25h7M70 25h1M93 25h3M5 26h3M30 26h1M45 26h2M54 26h2M70 26h1M93 26h3M5 27h3M29 27h2M44 27h1M56 27h1M70 27h2M93 27h3M5 28h3M29 28h1M43 28h1M57 28h1M71 28h1M93 28h3M5 29h2M29 29h1M42 29h1M58 29h1M71 29h1M94 29h2M4 30h3M29 30h1M41 30h1M59 30h1M71 30h1M94 30h3M4 31h3M28 31h1M41 31h1M59 31h1M72 31h1M94 31h3M4 32h3M28 32h1M40 32h1M60 32h1M72 32h1M94 32h3M4 33h3M28 33h1M40 33h1M60 33h1M72 33h1M94 33h3M4 34h3M28 34h1M40 34h1M60 34h1M72 34h1M94 34h3M4 35h3M28 35h1M40 35h1M60 35h1M72 35h1M94 35h3M4 36h3M28 36h1M40 36h1M60 36h1M72 36h1M94 36h3M4 37h3M28 37h1M40 37h1M60 37h1M72 37h1M94 37h3M4 38h3M28 38h1M40 38h1M60 38h1M72 38h1M94 38h3M4 39h3M28 39h1M41 39h1M59 39h1M72 39h1M94 39h3M4 40h3M29 40h1M41 40h1M59 40h1M71 40h1M94 40h3M4 41h3M29 41h1M42 41h1M58 41h1M71 41h1M94 41h3M4 42h4M29 42h1M43 42h1M57 42h1M71 42h1M93 42h4M5 43h3M29 43h2M44 43h1M56 43h1M70 43h2M93 43h3M5 44h3M30 44h1M45 44h2M54 44h2M70 44h1M93 44h3M5 45h3M30 45h1M47 45h7M70 45h1M93 45h3M5 46h3M31 46h1M69 46h1M93 46h3M5 47h4M31 47h2M68 47h2M92 47h4M6 48h3M32 48h1M68 48h1M92 48h3M6 49h3M33 49h1M67 49h1M92 49h3"/><path stroke="#FFFFFF" d="M25 0h5M71 0h5M23 1h5M72 1h6M22 2h5M74 2h5M21 3h5M75 3h5M20 4h4M77 4h4M19 5h4M78 5h4M18 6h4M79 6h4M17 7h4M80 7h4M16 8h4M81 8h4M16 9h3M82 9h3M15 10h4M82 10h4M14 11h4M83 11h4M14 12h3M84 12h3M13 13h4M85 13h3M12 14h4M46 14h9M85 14h4M12 15h3M43 15h3M55 15h3M86 15h3M11 16h4M40 16h3M58 16h3M86 16h4M11 17h3M39 17h2M60 17h2M87 17h3M10 18h4M37 18h2M62 18h2M87 18h4M10 19h3M36 19h2M63 19h2M88 19h3M10 20h3M35 20h2M64 20h2M88 20h3M9 21h3M34 21h2M65 21h2M89 21h3M9 22h3M33 22h2M66 22h2M89 22h3M9 23h3M33 23h1M67 23h1M89 23h3M8 24h4M32 24h1M68 24h1M89 24h4M8 25h3M31 25h2M68 25h2M90 25h3M8 26h3M31 26h1M47 26h7M69 26h1M90 26h3M8 27h3M31 27h1M45 27h3M53 27h3M69 27h1M90 27h3M8 28h3M30 28h1M44 28h2M55 28h2M70 28h1M90 28h3M7 29h3M30 29h1M43 29h1M57 29h1M70 29h1M91 29h3M7 30h3M30 30h1M42 30h2M57 30h2M70 30h1M91 30h3M7 31h3M29 31h1M42 31h1M58 31h1M71 31h1M91 31h3M7 32h3M29 32h1M41 32h2M58 32h2M71 32h1M91 32h3M7 33h3M29 33h1M41 33h1M59 33h1M71 33h1M91 33h3M7 34h3M29 34h1M41 34h1M59 34h1M71 34h1M91 34h3M7 35h3M29 35h1M41 35h1M59 35h1M71 35h1M91 35h3M7 36h3M29 36h1M41 36h1M59 36h1M71 36h1M91 36h3M7 37h3M29 37h1M41 37h1M59 37h1M71 37h1M91 37h3M7 38h3M29 38h1M41 38h2M58 38h2M71 38h1M91 38h3M7 39h3M29 39h1M42 39h1M58 39h1M71 39h1M91 39h3M7 40h3M30 40h1M42 40h2M57 40h2M70 40h1M91 40h3M7 41h3M30 41h1M43 41h1M57 41h1M70 41h1M91 41h3M8 42h3M30 42h1M44 42h2M55 42h2M70 42h1M90 42h3M8 43h3M31 43h1M45 43h3M53 43h3M69 43h1M90 43h3M8 44h3M31 44h1M47 44h7M69 44h1M90 44h3M8 45h3M31 45h2M68 45h2M90 45h3M8 46h4M32 46h1M68 46h1M89 46h4M9 47h3M33 47h1M67 47h1M89 47h3M9 48h3M33 48h2M66 48h2M89 48h3M9 49h3M34 49h2M65 49h2M89 49h3"/><path stroke="#FFD9DC" d="M30 0h7M64 0h7M28 1h7M66 1h6M27 2h6M68 2h6M26 3h5M70 3h5M24 4h5M72 4h5M23 5h5M73 5h5M22 6h5M74 6h5M21 7h4M76 7h4M20 8h4M77 8h4M19 9h4M78 9h4M19 10h3M79 10h3M18 11h4M79 11h4M17 12h4M80 12h4M17 13h3M81 13h4M16 14h3M82 14h3M15 15h4M82 15h4M15 16h3M46 16h9M83 16h3M14 17h4M43 17h3M55 17h3M83 17h4M14 18h3M41 18h2M58 18h2M84 18h3M13 19h4M39 19h2M60 19h2M84 19h4M13 20h3M38 20h2M61 20h2M85 20h3M12 21h4M37 21h1M63 21h1M85 21h4M12 22h3M36 22h1M64 22h1M86 22h3M12 23h3M35 23h1M65 23h1M86 23h3M12 24h3M34 24h2M65 24h2M86 24h3M11 25h3M34 25h1M66 25h1M87 25h3M11 26h3M33 26h1M67 26h1M87 26h3M11 27h3M33 27h1M67 27h1M87 27h3M11 28h3M32 28h1M48 28h5M68 28h1M87 28h3M10 29h3M32 29h1M46 29h2M53 29h2M68 29h1M88 29h3M10 30h3M32 30h1M45 30h1M55 30h1M68 30h1M88 30h3M10 31h3M31 31h1M44 31h1M56 31h1M69 31h1M88 31h3M10 32h3M31 32h1M44 32h1M56 32h1M69 32h1M88 32h3M10 33h3M31 33h1M43 33h1M57 33h1M69 33h1M88 33h3M10 34h3M31 34h1M43 34h1M57 34h1M69 34h1M88 34h3M10 35h3M31 35h1M43 35h1M57 35h1M69 35h1M88 35h3M10 36h3M31 36h1M43 36h1M57 36h1M69 36h1M88 36h3M10 37h3M31 37h1M43 37h1M57 37h1M69 37h1M88 37h3M10 38h3M31 38h1M44 38h1M56 38h1M69 38h1M88 38h3M10 39h3M31 39h1M44 39h1M56 39h1M69 39h1M88 39h3M10 40h3M32 40h1M45 40h1M55 40h1M68 40h1M88 40h3M10 41h3M32 41h1M46 41h2M53 41h2M68 41h1M88 41h3M11 42h3M32 42h1M48 42h5M68 42h1M87 42h3M11 43h3M33 43h1M67 43h1M87 43h3M11 44h3M33 44h1M67 44h1M87 44h3M11 45h3M34 45h1M66 45h1M87 45h3M12 46h3M34 46h2M65 46h2M86 46h3M12 47h3M35 47h1M65 47h1M86 47h3M12 48h3M36 48h1M64 48h1M86 48h3M12 49h4M37 49h1M63 49h1M85 49h4"/><path stroke="#DA9EE1" d="M37 0h8M56 0h8M35 1h5M61 1h5M33 2h4M64 2h4M31 3h4M66 3h4M29 4h4M68 4h4M28 5h3M70 5h3M27 6h3M71 6h3M25 7h4M72 7h4M24 8h3M74 8h3M23 9h3M75 9h3M22 10h3M76 10h3M22 11h2M77 11h2M21 12h2M78 12h2M20 13h3M78 13h3M19 14h3M79 14h3M19 15h2M80 15h2M18 16h2M81 16h2M18 17h2M46 17h9M81 17h2M17 18h2M43 18h3M55 18h3M82 18h2M17 19h2M41 19h2M58 19h2M82 19h2M16 20h2M40 20h1M60 20h1M83 20h2M16 21h2M38 21h2M61 21h2M83 21h2M15 22h2M37 22h2M62 22h2M84 22h2M15 23h2M36 23h2M63 23h2M84 23h2M15 24h2M36 24h1M64 24h1M84 24h2M14 25h2M35 25h1M65 25h1M85 25h2M14 26h2M34 26h1M66 26h1M85 26h2M14 27h2M34 27h1M66 27h1M85 27h2M14 28h2M33 28h1M67 28h1M85 28h2M13 29h3M33 29h1M48 29h5M67 29h1M85 29h3M13 30h2M33 30h1M46 30h2M53 30h2M67 30h1M86 30h2M13 31h2M32 31h1M45 31h2M54 31h2M68 31h1M86 31h2M13 32h2M32 32h1M45 32h1M55 32h1M68 32h1M86 32h2M13 33h2M32 33h1M44 33h1M56 33h1M68 33h1M86 33h2M13 34h2M32 34h1M44 34h1M56 34h1M68 34h1M86 34h2M13 35h2M32 35h1M44 35h1M56 35h1M68 35h1M86 35h2M13 36h2M32 36h1M44 36h1M56 36h1M68 36h1M86 36h2M13 37h2M32 37h1M44 37h1M56 37h1M68 37h1M86 37h2M13 38h2M32 38h1M45 38h1M55 38h1M68 38h1M86 38h2M13 39h2M32 39h1M45 39h2M54 39h2M68 39h1M86 39h2M13 40h2M33 40h1M46 40h2M53 40h2M67 40h1M86 40h2M13 41h3M33 41h1M48 41h5M67 41h1M85 41h3M14 42h2M33 42h1M67 42h1M85 42h2M14 43h2M34 43h1M66 43h1M85 43h2M14 44h2M34 44h1M66 44h1M85 44h2M14 45h2M35 45h1M65 45h1M85 45h2M15 46h2M36 46h1M64 46h1M84 46h2M15 47h2M36 47h2M63 47h2M84 47h2M15 48h2M37 48h2M62 48h2M84 48h2M16 49h2M38 49h2M61 49h2M83 49h2"/><path stroke="#A40852" d="M45 0h11M40 1h21M37 2h8M56 2h8M35 3h6M61 3h5M33 4h5M63 4h5M31 5h5M65 5h5M30 6h4M67 6h4M29 7h3M69 7h3M27 8h4M70 8h4M26 9h3M72 9h3M25 10h3M73 10h3M24 11h3M74 11h3M23 12h3M75 12h3M23 13h2M76 13h2M22 14h2M77 14h2M21 15h3M77 15h3M20 16h3M78 16h3M20 17h2M79 17h2M19 18h3M46 18h9M79 18h3M19 19h2M43 19h3M55 19h3M80 19h2M18 20h3M41 20h3M57 20h3M80 20h3M18 21h2M40 21h2M59 21h2M81 21h2M17 22h3M39 22h1M61 22h1M81 22h3M17 23h2M38 23h1M62 23h1M82 23h2M17 24h2M37 24h1M63 24h1M82 24h2M16 25h2M36 25h1M64 25h1M82 25h3M16 26h2M35 26h2M64 26h2M83 26h2M16 27h2M35 27h1M65 27h1M83 27h2M16 28h2M34 28h2M65 28h2M83 28h2M16 29h2M34 29h1M66 29h1M83 29h2M15 30h2M34 30h1M48 30h5M66 30h1M84 30h2M15 31h2M33 31h1M47 31h1M53 31h1M67 31h1M84 31h2M15 32h2M33 32h1M46 32h1M54 32h1M67 32h1M84 32h2M15 33h2M33 33h1M45 33h1M55 33h1M67 33h1M84 33h2M15 34h2M33 34h1M45 34h1M55 34h1M67 34h1M84 34h2M15 35h2M33 35h1M45 35h1M55 35h1M67 35h1M84 35h2M15 36h2M33 36h1M45 36h1M55 36h1M67 36h1M84 36h2M15 37h2M33 37h1M45 37h1M55 37h1M67 37h1M84 37h2M15 38h2M33 38h1M46 38h1M54 38h1M67 38h1M84 38h2M15 39h2M33 39h1M47 39h1M53 39h1M67 39h1M84 39h2M15 40h2M34 40h1M48 40h5M66 40h1M84 40h2M16 41h2M34 41h1M66 41h1M83 41h2M16 42h2M34 42h2M65 42h2M83 42h2M16 43h2M35 43h1M65 43h1M83 43h2M16 44h2M35 44h2M64 44h2M83 44h2M16 45h3M36 45h1M64 45h1M83 45h2M17 46h2M37 46h1M63 46h1M82 46h2M17 47h2M38 47h1M62 47h1M82 47h2M17 48h3M39 48h1M61 48h1M81 48h3M18 49h2M40 49h2M59 49h2M81 49h2"/><path stroke="#DB0D47" d="M45 2h11M41 3h20M38 4h7M56 4h7M36 5h5M60 5h5M34 6h4M63 6h4M32 7h4M65 7h4M31 8h3M67 8h3M29 9h4M68 9h4M28 10h3M70 10h3M27 11h3M71 11h3M26 12h3M72 12h3M25 13h3M73 13h3M24 14h3M74 14h3M24 15h2M75 15h2M23 16h2M76 16h2M22 17h3M76 17h3M22 18h2M77 18h2M21 19h2M46 19h9M78 19h2M21 20h2M44 20h3M54 20h3M78 20h2M20 21h2M42 21h2M57 21h2M79 21h2M20 22h2M40 22h2M59 22h2M79 22h2M19 23h2M39 23h2M60 23h2M80 23h2M19 24h2M38 24h2M61 24h2M80 24h2M18 25h3M37 25h2M62 25h2M80 25h2M18 26h2M37 26h1M63 26h1M81 26h2M18 27h2M36 27h1M64 27h1M81 27h2M18 28h2M36 28h1M64 28h1M81 28h2M18 29h2M35 29h1M65 29h1M81 29h2M17 30h2M35 30h1M65 30h1M82 30h2M17 31h2M34 31h2M48 31h5M65 31h2M82 31h2M17 32h2M34 32h1M47 32h2M52 32h2M66 32h1M82 32h2M17 33h2M34 33h1M46 33h2M53 33h2M66 33h1M82 33h2M17 34h2M34 34h1M46 34h1M54 34h1M66 34h1M82 34h2M17 35h2M34 35h1M46 35h1M54 35h1M66 35h1M82 35h2M17 36h2M34 36h1M46 36h1M54 36h1M66 36h1M82 36h2M17 37h2M34 37h1M46 37h2M53 37h2M66 37h1M82 37h2M17 38h2M34 38h1M47 38h2M52 38h2M66 38h1M82 38h2M17 39h2M34 39h2M48 39h5M65 39h2M82 39h2M17 40h2M35 40h1M65 40h1M82 40h2M18 41h2M35 41h1M65 41h1M81 41h2M18 42h2M36 42h1M64 42h1M81 42h2M18 43h2M36 43h1M64 43h1M81 43h2M18 44h2M37 44h1M63 44h1M81 44h2M19 45h2M37 45h2M62 45h2M80 45h3M19 46h2M38 46h2M61 46h2M80 46h2M19 47h2M39 47h2M60 47h2M80 47h2M20 48h2M40 48h2M59 48h2M79 48h2M20 49h2M42 49h2M57 49h2M79 49h2"/><path stroke="#FA378E" d="M45 4h11M41 5h19M38 6h7M56 6h7M36 7h5M60 7h5M34 8h5M62 8h5M33 9h4M64 9h4M31 10h4M66 10h4M30 11h3M68 11h3M29 12h3M69 12h3M28 13h3M70 13h3M27 14h3M71 14h3M26 15h3M72 15h3M25 16h3M73 16h3M25 17h2M74 17h2M24 18h2M75 18h2M23 19h3M75 19h3M23 20h2M47 20h7M76 20h2M22 21h3M44 21h3M54 21h3M76 21h3M22 22h2M42 22h2M57 22h2M77 22h2M21 23h3M41 23h1M59 23h1M77 23h3M21 24h2M40 24h1M60 24h1M78 24h2M21 25h2M39 25h1M61 25h1M78 25h2M20 26h2M38 26h1M62 26h1M79 26h2M20 27h2M37 27h1M63 27h1M79 27h2M20 28h2M37 28h1M63 28h1M79 28h2M20 29h2M36 29h1M64 29h1M79 29h2M19 30h2M36 30h1M64 30h1M80 30h2M19 31h2M36 31h1M64 31h1M80 31h2M19 32h2M35 32h1M49 32h3M65 32h1M80 32h2M19 33h2M35 33h1M48 33h1M52 33h1M65 33h1M80 33h2M19 34h2M35 34h1M47 34h1M53 34h1M65 34h1M80 34h2M19 35h2M35 35h1M47 35h1M53 35h1M65 35h1M80 35h2M19 36h2M35 36h1M47 36h1M53 36h1M65 36h1M80 36h2M19 37h2M35 37h1M48 37h1M52 37h1M65 37h1M80 37h2M19 38h2M35 38h1M49 38h3M65 38h1M80 38h2M19 39h2M36 39h1M64 39h1M80 39h2M19 40h2M36 40h1M64 40h1M80 40h2M20 41h2M36 41h1M64 41h1M79 41h2M20 42h2M37 42h1M63 42h1M79 42h2M20 43h2M37 43h1M63 43h1M79 43h2M20 44h2M38 44h1M62 44h1M79 44h2M21 45h2M39 45h1M61 45h1M78 45h2M21 46h2M40 46h1M60 46h1M78 46h2M21 47h3M41 47h1M59 47h1M77 47h3M22 48h2M42 48h2M57 48h2M77 48h2M22 49h3M44 49h3M54 49h3M76 49h3"/><path stroke="#61EBFF" d="M46 15h9M43 16h3M55 16h3M41 17h2M58 17h2M39 18h2M60 18h2M38 19h1M62 19h1M37 20h1M63 20h1M36 21h1M64 21h1M35 22h1M65 22h1M34 23h1M66 23h1M33 24h1M67 24h1M33 25h1M67 25h1M32 26h1M68 26h1M32 27h1M48 27h5M68 27h1M31 28h1M46 28h2M53 28h2M69 28h1M31 29h1M44 29h2M55 29h2M69 29h1M31 30h1M44 30h1M56 30h1M69 30h1M30 31h1M43 31h1M57 31h1M70 31h1M30 32h1M43 32h1M57 32h1M70 32h1M30 33h1M42 33h1M58 33h1M70 33h1M30 34h1M42 34h1M58 34h1M70 34h1M30 35h1M42 35h1M58 35h1M70 35h1M30 36h1M42 36h1M58 36h1M70 36h1M30 37h1M42 37h1M58 37h1M70 37h1M30 38h1M43 38h1M57 38h1M70 38h1M30 39h1M43 39h1M57 39h1M70 39h1M31 40h1M44 40h1M56 40h1M69 40h1M31 41h1M44 41h2M55 41h2M69 41h1M31 42h1M46 42h2M53 42h2M69 42h1M32 43h1M48 43h5M68 43h1M32 44h1M68 44h1M33 45h1M67 45h1M33 46h1M67 46h1M34 47h1M66 47h1M35 48h1M65 48h1M36 49h1M64 49h1"/></g><g class="animated-bg"><path stroke="#FFFB66" d="M0 50h2M30 50h2M69 50h2M99 50h1M0 51h2M31 51h2M68 51h2M99 51h1M0 52h3M31 52h3M67 52h3M98 52h2M0 53h3M32 53h3M66 53h3M98 53h2M0 54h3M33 54h4M64 54h4M98 54h2M0 55h4M35 55h3M63 55h3M97 55h3M0 56h4M36 56h4M61 56h4M97 56h3M0 57h5M38 57h4M59 57h4M96 57h4M1 58h4M39 58h7M55 58h7M96 58h4M1 59h5M42 59h17M95 59h5M2 60h4M45 60h11M95 60h5M2 61h5M94 61h5M3 62h4M94 62h4M3 63h5M93 63h5M4 64h4M93 64h4M4 65h5M92 65h5M5 66h5M91 66h5M6 67h5M90 67h5M6 68h5M90 68h5M7 69h5M89 69h5M8 70h5M88 70h5M9 71h5M87 71h5M9 72h6M86 72h6M10 73h6M85 73h6M11 74h6M84 74h6M12 75h6M83 75h6M13 76h7M81 76h7M14 77h7M80 77h7M16 78h6M79 78h6M17 79h7M77 79h7M18 80h8M75 80h8M20 81h8M73 81h8M21 82h9M71 82h9M23 83h9M69 83h9M25 84h10M66 84h10M26 85h12M63 85h11M29 86h14M58 86h14M31 87h39M34 88h33M38 89h25M43 90h15"/><path stroke="#CDFF39" d="M2 50h4M32 50h2M67 50h2M95 50h4M2 51h4M33 51h2M66 51h2M95 51h4M3 52h4M34 52h2M65 52h2M94 52h4M3 53h4M35 53h2M64 53h2M94 53h4M3 54h5M37 54h1M63 54h1M93 54h5M4 55h4M38 55h2M61 55h2M93 55h4M4 56h4M40 56h2M59 56h2M93 56h4M5 57h4M42 57h4M55 57h4M92 57h4M5 58h4M46 58h9M91 58h5M6 59h4M91 59h4M6 60h5M90 60h5M7 61h4M90 61h4M7 62h5M89 62h5M8 63h5M88 63h5M8 64h5M88 64h5M9 65h5M87 65h5M10 66h5M86 66h5M11 67h5M85 67h5M11 68h6M84 68h6M12 69h6M83 69h6M13 70h6M82 70h6M14 71h6M81 71h6M15 72h6M80 72h6M16 73h6M79 73h6M17 74h7M77 74h7M18 75h7M76 75h7M20 76h7M74 76h7M21 77h8M73 77h7M22 78h8M71 78h8M24 79h9M68 79h9M26 80h9M66 80h9M28 81h11M62 81h11M30 82h14M57 82h14M32 83h37M35 84h31M38 85h25M43 86h15"/><path stroke="#68FF2D" d="M6 50h4M34 50h1M66 50h1M91 50h4M6 51h4M35 51h1M65 51h1M91 51h4M7 52h3M36 52h1M64 52h1M91 52h3M7 53h4M37 53h2M62 53h2M90 53h4M8 54h3M38 54h2M61 54h2M90 54h3M8 55h4M40 55h3M58 55h3M89 55h4M8 56h4M42 56h4M55 56h4M89 56h4M9 57h4M46 57h9M88 57h4M9 58h5M87 58h4M10 59h4M87 59h4M11 60h4M86 60h4M11 61h5M85 61h5M12 62h4M85 62h4M13 63h4M84 63h4M13 64h5M83 64h5M14 65h5M82 65h5M15 66h5M81 66h5M16 67h5M80 67h5M17 68h5M79 68h5M18 69h5M78 69h5M19 70h6M76 70h6M20 71h6M75 71h6M21 72h7M73 72h7M22 73h7M72 73h7M24 74h7M70 74h7M25 75h8M68 75h8M27 76h9M65 76h9M29 77h10M62 77h11M30 78h14M57 78h14M33 79h35M35 80h31M39 81h23M44 82h13"/><path stroke="#00FACA" d="M10 50h3M35 50h2M64 50h2M88 50h3M10 51h3M36 51h2M63 51h2M88 51h3M10 52h4M37 52h2M62 52h2M87 52h4M11 53h3M39 53h2M60 53h2M87 53h3M11 54h4M40 54h3M58 54h3M86 54h4M12 55h3M43 55h3M55 55h3M86 55h3M12 56h4M46 56h9M85 56h4M13 57h3M84 57h4M14 58h3M84 58h3M14 59h4M83 59h4M15 60h4M82 60h4M16 61h3M82 61h3M16 62h4M81 62h4M17 63h4M80 63h4M18 64h4M79 64h4M19 65h4M78 65h4M20 66h4M77 66h4M21 67h5M75 67h5M22 68h5M74 68h5M23 69h6M73 69h5M25 70h5M71 70h5M26 71h6M69 71h6M28 72h6M67 72h6M29 73h7M65 73h7M31 74h9M61 74h9M33 75h11M57 75h11M36 76h29M39 77h23M44 78h13"/><path stroke="#28ABFF" d="M13 50h3M38 50h2M61 50h2M85 50h3M13 51h4M39 51h2M60 51h2M84 51h4M14 52h3M41 52h2M58 52h2M84 52h3M14 53h4M43 53h3M55 53h3M83 53h4M15 54h3M46 54h9M83 54h3M15 55h4M82 55h4M16 56h3M82 56h3M16 57h4M81 57h3M17 58h4M80 58h4M18 59h4M79 59h4M19 60h3M79 60h3M19 61h4M78 61h4M20 62h4M77 62h4M21 63h4M76 63h4M22 64h5M74 64h5M23 65h5M73 65h5M24 66h5M72 66h5M26 67h5M70 67h5M27 68h6M68 68h6M29 69h6M66 69h7M30 70h7M64 70h7M32 71h8M61 71h8M34 72h10M57 72h10M36 73h29M40 74h21M44 75h13"/><path stroke="#1E6FFF" d="M16 50h2M40 50h1M60 50h1M83 50h2M17 51h2M41 51h2M58 51h2M82 51h2M17 52h2M43 52h3M55 52h3M82 52h2M18 53h2M46 53h9M81 53h2M18 54h2M81 54h2M19 55h2M80 55h2M19 56h3M79 56h3M20 57h3M78 57h3M21 58h2M78 58h2M22 59h2M77 59h2M22 60h3M76 60h3M23 61h3M75 61h3M24 62h3M74 62h3M25 63h4M72 63h4M27 64h3M71 64h3M28 65h3M70 65h3M29 66h4M68 66h4M31 67h4M66 67h4M33 68h4M64 68h4M35 69h5M61 69h5M37 70h8M56 70h8M40 71h21M44 72h13"/><path stroke="#C837FF" d="M18 50h3M41 50h3M57 50h3M80 50h3M19 51h2M43 51h3M55 51h3M80 51h2M19 52h3M46 52h9M79 52h3M20 53h2M79 53h2M20 54h3M78 54h3M21 55h3M77 55h3M22 56h2M77 56h2M23 57h2M76 57h2M23 58h3M75 58h3M24 59h3M74 59h3M25 60h3M73 60h3M26 61h3M72 61h3M27 62h4M70 62h4M29 63h3M69 63h3M30 64h4M67 64h4M31 65h5M65 65h5M33 66h5M63 66h5M35 67h5M60 67h6M37 68h8M56 68h8M40 69h21M45 70h11M0 98h1M99 98h1M0 99h2M98 99h2"/><path stroke="#FF45C0" d="M21 50h2M44 50h3M54 50h3M78 50h2M21 51h2M46 51h9M78 51h2M22 52h2M77 52h2M22 53h3M76 53h3M23 54h2M76 54h2M24 55h2M75 55h2M24 56h3M74 56h3M25 57h3M73 57h3M26 58h3M72 58h3M27 59h3M71 59h3M28 60h3M70 60h3M29 61h4M68 61h4M31 62h3M67 62h3M32 63h4M65 63h4M34 64h4M63 64h4M36 65h5M60 65h5M38 66h7M56 66h7M40 67h20M45 68h11M99 88h1M0 89h1M98 89h2M0 90h2M97 90h3M0 91h3M96 91h4M0 92h4M95 92h5M0 93h5M94 93h6M0 94h7M92 94h8M0 95h8M91 95h9M0 96h9M90 96h10M0 97h11M88 97h12M1 98h11M87 98h12M2 99h12M85 99h13"/><path stroke="#FF5B5B" d="M23 50h2M47 50h7M76 50h2M23 51h3M75 51h3M24 52h2M75 52h2M25 53h2M74 53h2M25 54h3M73 54h3M26 55h3M72 55h3M27 56h3M71 56h3M28 57h3M70 57h3M29 58h3M69 58h3M30 59h3M68 59h3M31 60h4M66 60h4M33 61h4M64 61h4M34 62h5M62 62h5M36 63h5M60 63h5M38 64h7M56 64h7M41 65h19M45 66h11M0 78h1M0 79h1M99 79h1M0 80h2M99 80h1M0 81h3M98 81h2M0 82h4M97 82h3M0 83h5M96 83h4M0 84h6M95 84h5M0 85h7M94 85h6M0 86h9M93 86h7M0 87h10M91 87h9M0 88h11M90 88h9M1 89h11M89 89h9M2 90h12M87 90h10M3 91h12M86 91h10M4 92h13M84 92h11M5 93h13M83 93h11M7 94h13M81 94h11M8 95h14M79 95h12M9 96h15M77 96h13M11 97h16M74 97h14M12 98h18M71 98h16M14 99h19M68 99h17"/><path stroke="#FF994A" d="M25 50h2M74 50h2M26 51h2M73 51h2M26 52h3M72 52h3M27 53h3M71 53h3M28 54h3M70 54h3M29 55h3M69 55h3M30 56h3M68 56h3M31 57h3M67 57h3M32 58h3M66 58h3M33 59h4M64 59h4M35 60h4M62 60h4M37 61h5M59 61h5M39 62h6M56 62h6M41 63h19M45 64h11M0 69h1M0 70h2M99 70h1M0 71h2M99 71h1M0 72h3M98 72h2M0 73h4M97 73h3M0 74h5M96 74h4M0 75h6M96 75h4M0 76h6M95 76h5M0 77h7M94 77h6M1 78h7M93 78h7M1 79h8M92 79h7M2 80h8M91 80h8M3 81h8M89 81h9M4 82h9M88 82h9M5 83h9M87 83h9M6 84h9M86 84h9M7 85h10M84 85h10M9 86h9M83 86h10M10 87h10M81 87h10M11 88h10M80 88h10M12 89h11M78 89h11M14 90h11M75 90h12M15 91h13M73 91h13M17 92h13M71 92h13M18 93h15M68 93h15M20 94h17M64 94h17M22 95h21M58 95h21M24 96h53M27 97h47M30 98h41M33 99h35"/><path stroke="#FFCE41" d="M27 50h3M71 50h3M28 51h3M70 51h3M29 52h2M70 52h2M30 53h2M69 53h2M31 54h2M68 54h2M32 55h3M66 55h3M33 56h3M65 56h3M34 57h4M63 57h4M0 58h1M35 58h4M62 58h4M0 59h1M37 59h5M59 59h5M0 60h2M39 60h6M56 60h6M0 61h2M42 61h17M99 61h1M0 62h3M45 62h11M98 62h2M0 63h3M98 63h2M0 64h4M97 64h3M0 65h4M97 65h3M0 66h5M96 66h4M0 67h6M95 67h5M0 68h6M95 68h5M1 69h6M94 69h6M2 70h6M93 70h6M2 71h7M92 71h7M3 72h6M92 72h6M4 73h6M91 73h6M5 74h6M90 74h6M6 75h6M89 75h7M6 76h7M88 76h7M7 77h7M87 77h7M8 78h8M85 78h8M9 79h8M84 79h8M10 80h8M83 80h8M11 81h9M81 81h8M13 82h8M80 82h8M14 83h9M78 83h9M15 84h10M76 84h10M17 85h9M74 85h10M18 86h11M72 86h11M20 87h11M70 87h11M21 88h13M67 88h13M23 89h15M63 89h15M25 90h18M58 90h17M28 91h45M30 92h41M33 93h35M37 94h27M43 95h15"/><path stroke="#61EBFF" d="M37 50h1M63 50h1M38 51h1M62 51h1M39 52h2M60 52h2M41 53h2M58 53h2M43 54h3M55 54h3M46 55h9"/></g><g class="body"><path stroke="#000000" d="M25 26h11m-13 1h2m11 0h3m33 0h8m-58 1h1m16 0h2m29 0h2m8 0h2m-61 1h1m19 0h1m27 0h1m12 0h1m-63 1h1m21 0h1m25 0h1m14 0h1m-65 1h1m9 0h5m9 0h1m23 0h1m7 0h5m4 0h1m-67 1h1m8 0h1m7 0h1m8 0h2m20 0h1m6 0h1m7 0h1m3 0h1m-68 1h1m7 0h1m9 0h1m9 0h20m6 0h1m9 0h1m3 0h1m-70 1h1m7 0h1m11 0h1m33 0h1m11 0h1m2 0h1m-70 1h1m6 0h1m45 0h1m16 0h1m-72 1h1m7 0h1m45 0h1m16 0h1m-72 1h1m6 0h1m45 0h1m18 0h1m-73 1h1m6 0h1m45 0h1m18 0h1m-74 1h1m7 0h1m15 0h1m29 0h1m15 0h1m2 0h1m-74 1h1m7 0h1m15 0h1m29 0h1m15 0h1m2 0h1m-74 1h1m7 0h2m14 0h1m29 0h2m14 0h1m2 0h1m-74 1h1m7 0h1m1 0h1m12 0h2m29 0h1m1 0h1m12 0h2m2 0h1m-74 1h1m7 0h1m2 0h1m10 0h1m1 0h1m29 0h1m2 0h1m10 0h1m1 0h1m2 0h1m-74 1h1m8 0h1m2 0h2m6 0h2m1 0h1m31 0h1m2 0h2m6 0h2m1 0h1m3 0h1m-74 1h1m8 0h1m4 0h6m3 0h1m31 0h1m4 0h6m3 0h1m2 0h1m-74 1h1m10 0h1m11 0h1m33 0h1m11 0h1m3 0h1m-74 1h1m11 0h1m9 0h1m35 0h1m9 0h1m4 0h1m-74 1h1m12 0h2m6 0h1m37 0h2m6 0h1m5 0h1m-75 1h1m15 0h6m40 0h6m6 0h1m-75 1h1m73 0h1m-75 1h1m74 0h1m-76 1h1m43 0h1m11 0h1m18 0h1m-77 1h1m45 0h1m9 0h1m19 0h1m-77 1h1m76 0h1m-79 1h1m77 0h1m-79 1h1m78 0h1m-81 1h1m80 0h1M9 58h1m81 0h1M9 59h1m82 0h1M8 60h1m83 0h1M8 61h1m84 0h1M7 62h1m85 0h1M7 63h1m85 0h1M7 64h1m85 0h1M6 65h1m86 0h1M6 66h1m86 0h1M6 67h1m85 0h1M6 68h1m85 0h1M6 69h1m84 0h1M7 70h1m82 0h1M7 71h1m81 0h1M8 72h1m79 0h1M8 73h1m79 0h1M9 74h1m77 0h1M9 75h1m76 0h1m-77 1h1m75 0h1m-77 1h1m74 0h1m-75 1h1m73 0h1m-75 1h1m72 0h1m-73 1h1m71 0h1m-73 1h1m70 0h1m-71 1h1m68 0h1m-70 1h1m67 0h1m-69 1h1m66 0h1m-67 1h1m64 0h1m-66 1h1m63 0h1m-64 1h1m61 0h2m-64 1h1m62 0h1m-65 1h2m63 0h1m-66 1h1m64 0h1m-67 1h1m66 0h1m-69 1h1m67 0h1m-69 1h1m68 0h1m-71 1h1m70 0h1m-72 1h1m71 0h1m-74 1h1m72 0h1M9 97h1m73 0h1M8 98h1m75 0h1M8 99h1m76 0h1"/><path stroke="#510060" d="M25 27h1m-3 1h1m-2 1h1m-2 1h1m-2 1h1m-2 1h1m14 0h1m-17 2h1m65 1h1M15 46h1m53 7h1m-60 5h1m-2 2h1m-2 2h1m-2 7h1m0 2h1m0 2h1m2 6h1m0 2h1m2 7h1m-1 1h1m-2 1h3m-4 1h1m-2 1h1m-3 4h1"/><path stroke="#A40852" d="M26 27h2m-4 1h2m12 0h1m-16 1h2m15 0h1m-19 1h2m-3 1h2m11 0h2m-16 1h2m14 0h1m45 0h1m-64 1h2m62 0h1m-37 1h3m12 0h1m21 0h1m0 2h1m-66 4h1m-2 1h2m-3 1h4m-5 1h4m-5 1h4m-4 1h3m-3 1h2m68 0h1m-72 1h1m69 0h2m-64 4h3m-6 1h4m31 0h1m12 0h1m1 0h1m-53 1h4m-6 1h4m47 0h1m20 0h1m-75 1h4m-6 1h5m-6 1h5m-5 1h3m-4 1h3m-3 1h1m-2 1h1m8 0h2m-4 1h3m25 0h1m-30 1h3m21 0h3m-29 1h5m20 0h1m-28 1h6m2 0h1m-10 1h6m1 0h2m7 0h4M9 67h9m7 0h5M7 68h10m7 0h3M8 69h8m6 0h2M8 70h7m-6 1h5m-5 1h4m-3 1h1m7 0h1m-2 1h1m-2 1h2m-3 1h3m-4 1h4m-5 1h5m-5 1h4m-4 1h3m-2 1h1m4 4h2m-4 1h5m-6 1h6m-5 1h4m-4 1h3m2 0h1m-2 1h1m-7 1h2m3 0h1m-7 1h2m2 0h2m-7 1h1m2 0h3m-7 1h5m-5 1h3m5 1h5m-7 1h6m-9 1h8m-10 1h8"/><path stroke="#2DB5FF" d="M28 27h6m-8 1h2m-3 1h2m44 0h1m7 0h3m-58 1h5m49 0h5m-60 1h4m41 0h1m12 0h2m-60 1h3m41 0h2m-46 1h2m8 0h2m32 0h1m11 0h2m-59 1h2m9 0h1m1 0h1m2 0h1m5 0h2m5 0h5m23 0h1m1 0h1m-60 1h2m3 0h1m5 0h1m2 0h1m2 0h1m4 0h2m4 0h4m9 0h2m4 0h1m3 0h1m5 0h1m2 0h1m-61 1h2m2 0h2m5 0h1m3 0h1m1 0h2m3 0h1m4 0h4m15 0h2m2 0h2m5 0h1m3 0h1m2 0h1m-66 1h2m2 0h3m5 0h1m3 0h2m1 0h4m4 0h5m14 0h2m2 0h3m5 0h1m3 0h2m1 0h2m-67 1h1m3 0h3m5 0h1m4 0h1m1 0h3m4 0h5m15 0h2m2 0h3m5 0h1m4 0h1m1 0h2m-63 1h3m5 0h1m4 0h1m1 0h2m4 0h5m17 0h1m2 0h3m5 0h1m4 0h1m2 0h1m-63 1h3m5 0h1m4 0h1m1 0h1m4 0h5m18 0h1m2 0h3m5 0h1m4 0h1m-60 1h3m5 0h1m4 0h1m1 0h1m3 0h5m6 0h2m14 0h3m5 0h1m4 0h1m-63 1h1m3 0h2m5 0h1m9 0h5m4 0h6m14 0h2m5 0h1m-58 1h1m4 0h2m4 0h1m8 0h5m4 0h8m14 0h2m4 0h1m-58 1h2m1 0h1m3 0h5m6 0h6m3 0h11m9 0h1m1 0h1m3 0h5m-58 1h2m1 0h2m10 0h1m1 0h6m3 0h14m6 0h2m1 0h2m10 0h1m-61 1h2m1 0h2m8 0h1m1 0h6m3 0h14m2 0h8m1 0h2m8 0h1m-60 1h1m3 0h2m6 0h1m1 0h6m2 0h15m2 0h8m3 0h2m6 0h1m-58 1h1m4 0h6m1 0h6m2 0h14m3 0h8m6 0h6m2 0h1m-59 1h1m9 0h6m2 0h14m3 0h8m17 0h2m-61 1h1m3 0h10m2 0h14m3 0h8m7 0h7m3 0h3m-59 1h11m2 0h14m6 0h5m7 0h7m3 0h4m-59 1h4m1 0h5m2 0h14m4 0h1m2 0h5m6 0h7m7 0h1m-59 1h2m2 0h6m1 0h13m3 0h2m3 0h5m6 0h7m-51 1h2m2 0h6m1 0h13m3 0h4m3 0h4m4 0h8m-52 1h2m3 0h20m3 0h11m3 0h9m-53 1h3m3 0h19m4 0h11m3 0h9m-53 1h2m4 0h19m4 0h11m3 0h9m4 0h3m-59 1h1m4 0h18m6 0h10m2 0h10m4 0h6m-57 1h9m1 0h8m6 0h10m1 0h11m4 0h6m-59 1h1m1 0h9m1 0h7m7 0h4m4 0h2m1 0h11m4 0h6m-59 1h1m2 0h8m1 0h7m7 0h9m4 0h9m5 0h6m4 0h3m-68 1h2m2 0h8m2 0h6m19 0h3m2 0h5m5 0h5m9 0h2m-71 1h2m2 0h7m3 0h6m23 0h5m6 0h3m14 0h3m-75 1h2m2 0h7m3 0h4m30 0h1m4 0h1m-51 1h7m3 0h2"/><path stroke="#107EE2" d="M34 27h2m36 1h1m-3 1h1m-42 1h5m7 0h1m27 0h1m-43 1h2m13 0h1m37 0h1m-59 1h1m3 0h1m2 0h5m9 0h1m31 0h5m-59 1h2m2 0h1m1 0h6m2 0h1m1 0h1m6 0h2m20 0h1m6 0h6m2 0h1m-63 1h3m2 0h1m1 0h7m3 0h1m9 0h1m13 0h2m1 0h4m5 0h7m3 0h1m-65 1h4m3 0h2m1 0h5m4 0h1m27 0h1m5 0h2m1 0h5m4 0h1m-66 1h4m3 0h1m2 0h5m38 0h1m2 0h5m-62 1h4m3 0h1m3 0h5m37 0h1m3 0h5m-62 1h4m3 0h1m3 0h5m37 0h1m3 0h5m-62 1h4m3 0h1m3 0h5m37 0h1m3 0h5m7 0h1m-71 1h4m4 0h1m3 0h5m37 0h1m3 0h5m7 0h2m-72 1h3m9 0h5m41 0h5m7 0h2m-72 1h2m6 0h1m3 0h5m37 0h1m3 0h5m7 0h2m-72 1h1m4 0h1m2 0h2m3 0h4m37 0h2m3 0h4m7 0h2m-68 1h2m4 0h1m45 0h1m12 0h3m-69 1h3m5 0h1m8 0h1m36 0h1m8 0h1m2 0h2m-69 1h5m5 0h8m38 0h8m2 0h2m-70 1h7m6 0h6m40 0h6m2 0h2m-70 1h9m58 0h1m3 0h1m-72 1h10m3 0h1m52 0h1m-67 1h11m-12 1h9m3 0h2m59 0h1m-74 1h6m4 0h4m59 0h1m-74 1h4m4 0h6m-15 1h3m4 0h7m31 0h3m-48 1h1m4 0h7m-8 1h6m-7 1h6m68 0h1m-77 1h8m-9 1h8m-10 1h9m-10 1h8m-9 1h7m40 0h3M8 63h7m-7 1h5m23 0h2m27 0h1M8 65h3m6 0h2m1 0h1m12 0h3M7 66h3m6 0h1m2 0h7m4 0h3M7 67h2m9 0h7m-8 1h7m-8 1h6m-7 1h6m-7 1h6m-7 1h6m-8 1h7m-8 1h7m-6 1h5m-5 1h4m-3 1h2m-2 1h1m4 1h2m-3 1h3m-4 1h4m-5 1h5m-5 1h6m-5 1h5m-5 1h4m-3 1h1m4 2h2m-3 1h2m-4 1h3m1 0h2m-5 1h1m1 0h3m-8 1h2m2 0h4m-10 1h2m3 0h1m1 0h4m-8 1h8m-10 1h10m-13 1h8m5 0h1m-15 1h7m6 0h2m-16 1h5m8 0h3m-16 1h3m8 0h5"/><path stroke="#7ADAFF" d="M28 28h8m-9 1h8m5 1h1m29 0h1m-33 1h1m2 0h1m27 0h1m-32 1h2m1 0h2m-5 1h6m-10 1h1m4 0h5m36 0h1m-47 1h2m4 0h4m10 0h1m4 0h2m1 0h1m17 0h2m-48 1h3m4 0h3m9 0h1m4 0h2m2 0h3m15 0h3m-49 1h3m20 0h2m2 0h2m17 0h3m-49 1h1m1 0h2m18 0h2m2 0h3m3 0h1m13 0h1m1 0h2m-50 1h4m17 0h1m2 0h5m4 0h1m12 0h4m-50 1h1m1 0h2m19 0h5m5 0h1m12 0h1m1 0h2m-50 1h1m1 0h2m19 0h4m2 0h2m1 0h3m11 0h1m1 0h2m-50 1h1m1 0h1m21 0h2m1 0h8m11 0h1m1 0h1m-49 1h1m24 0h10m11 0h1m-21 1h9m-7 1h1m1 0h4m-44 2h2m-1 1h2m0 1h1m-1 1h3m27 1h2m1 0h1m-2 1h1m22 0h4m-5 1h6m-7 1h6m-7 1h7m-7 1h6m-4 1h3m3 2h1m-35 1h4m29 0h3m-30 1h2m27 0h2m-28 1h2m26 0h2m-25 1h1"/><path stroke="#FA378E" d="M36 28h2m36 0h4m-43 1h4m37 0h2m-44 1h4m36 0h4m-42 1h2m32 0h4m-37 1h1m31 0h3m-3 1h2m-16 2h4m2 0h1m-8 1h4m2 0h2m-9 1h4m2 0h2m3 0h2m-12 1h2m2 0h2m5 0h1m-10 1h2m-2 1h1m5 0h2m-3 1h2m-3 1h1m2 3h1m5 6h3m9 1h1m-3 1h2m-3 1h2m7 0h1m-10 1h1m6 1h1m-2 1h3m-4 1h4m-2 1h2m-19 4h3"/><path stroke="#DB0D47" d="M73 28h1m4 0h2m-41 1h1m38 0h1m-5 2h1m8 0h1m-12 1h1m10 0h2m-17 1h1m2 0h1m12 0h2m-36 1h1m5 0h4m7 0h4m14 0h1m-40 1h4m16 0h3m16 0h2m-42 1h4m16 0h3m-24 1h4m18 0h1m-45 1h1m20 0h4m5 0h2m-33 1h2m19 0h4m5 0h4m-34 1h2m18 0h4m5 0h6m-35 1h2m18 0h3m5 0h6m-15 1h3m5 0h4m-12 1h2m5 0h4m-12 1h1m6 0h3m-4 1h3m-4 1h3m14 0h2m-20 1h2m15 0h2m8 0h2m-30 1h2m14 0h3m8 0h4m11 0h2m-45 1h2m14 0h3m8 0h7m7 0h3m-45 1h2m14 0h3m8 0h7m7 0h3m-45 1h2m14 0h2m9 0h3m3 0h1m7 0h3m-51 1h1m5 0h2m14 0h1m11 0h2m3 0h1m7 0h2m-51 1h2m6 0h1m13 0h3m10 0h3m2 0h1m7 0h1m8 0h1m-59 1h2m6 0h1m13 0h3m11 0h2m1 0h1m8 0h1m-51 1h3m20 0h3m11 0h3m9 0h2m-52 1h3m19 0h4m11 0h3m9 0h4m-55 1h4m19 0h4m11 0h3m9 0h4m-55 1h4m18 0h6m10 0h2m10 0h4m-56 1h5m9 0h1m8 0h6m10 0h1m11 0h4m6 0h3m-65 1h3m1 0h1m9 0h1m7 0h7m10 0h1m11 0h4m6 0h5m-66 1h2m1 0h2m8 0h1m7 0h7m22 0h5m6 0h1m-63 1h1m2 0h2m8 0h2m6 0h4m25 0h5m-56 1h1m2 0h2m7 0h3m38 0h2m-53 1h2m7 0h3m35 0h4m-43 1h3"/><path stroke="#FF71C5" d="M72 29h4m-38 1h1m32 0h3m-10 8h1m-2 1h2m21 15h1m-1 1h3m-3 1h4m-3 1h2m-2 1h1"/><path stroke="#A7FAFF" d="M39 30h1m-1 1h2m-1 1h1m22 5h1m-29 1h1m27 0h1m17 0h1m-17 1h2m-32 1h1m28 0h3m14 0h1m-47 1h1m29 0h1m15 0h1m-47 1h1m1 0h1m43 0h1m1 0h1m-49 1h2m44 0h2m-49 1h1m45 0h1m-55 5h1m32 2h1m0 1h1m28 5h1m-2 1h3m-3 1h4m-3 1h3m-35 1h2m31 0h3m-1 1h1"/><path stroke="#002CAB" d="M28 32h1m45 0h1m5 0h1m-43 3h1m-22 1h1m20 0h1m45 0h1m-46 1h1m45 0h1m-47 1h1m45 0h1m-70 1h1m21 4h1m45 0h1m-48 1h1m45 0h1m-56 1h1m6 0h1m38 0h1m6 0h1m-68 4h1m-1 1h1m41 2h1m-44 1h1m43 0h1m1 0h1m-48 2h1M7 65h1m2 10h1m0 2h1m2 7h1m0 2h1m1 5h2m1 2h1m-11 4h1m-2 1h1m-1 1h1"/><path stroke="#3EA79F" d="M82 61h1m-38 1h3m5 0h3m23 0h1m-38 1h2m16 0h2m14 0h1m12 0h1m-51 1h2m23 0h1m7 0h3m16 0h2m-57 1h2m31 0h3m-39 1h2m57 0h1m-63 1h2m-5 1h2m62 0h1m-68 1h2m-5 1h2m-3 1h1m-2 1h1m52 0h4m-12 1h11m-57 1h1m45 0h9m10 0h1m1 0h1m-21 1h7m10 0h4m-19 1h4m11 0h4m-5 1h4m-67 1h1m62 0h4m-4 1h3m-4 1h4m-5 1h4m-64 1h1m59 0h3m-4 1h3m-61 1h1m57 0h2m-59 1h1m55 0h2m-2 1h1m-56 1h1m53 0h1m-54 1h1m51 0h2m-54 1h1m50 0h1m-51 1h2m46 0h1m2 0h4m-55 1h3m43 0h1m2 0h7m-56 1h3m39 0h2m3 0h9m-55 1h3m22 0h1m1 0h2m1 0h9m4 0h13m-56 1h4m27 0h26m-57 1h4m31 0h23m-57 1h3m33 0h21m-57 1h3m35 0h19m-57 1h3m36 0h19m-58 1h3m37 0h19"/><path stroke="#5FDB9E" d="M83 61h2m-37 1h5m27 0h2m2 0h4m-44 1h5m9 0h2m17 0h2m9 0h1m-48 1h5m15 0h3m11 0h1m-38 1h3m25 0h3m3 0h1m18 0h2m-58 1h4m52 0h1m-60 1h2m57 0h1m-63 1h2m-5 1h3m26 0h5m18 0h5m6 0h2m-68 1h1m28 0h11m14 0h13m-69 1h2m28 0h18m5 0h14m-68 1h1m31 0h20m4 0h10m-67 1h3m33 0h9m11 0h10m-66 1h3m35 0h7m9 0h10m-65 1h4m36 0h7m7 0h10m-64 1h5m36 0h8m4 0h11m-64 1h6m35 0h22m-62 1h7m34 0h21m-62 1h14m28 0h20m-62 1h16m27 0h18m-61 1h20m24 0h16m-59 1h22m21 0h16m-59 1h24m17 0h17m-57 1h27m9 0h21m-56 1h55m-55 1h55m-54 1h53m-52 1h51m-51 1h50m-48 1h46m-45 1h43m-43 1h39m-38 1h22m1 0h1m2 0h1m-26 1h27m-27 1h31m-31 1h33m-33 1h35m-35 1h36m-36 1h37"/><path stroke="#A1FF84" d="M82 62h2m-35 1h9m21 0h9m-42 1h15m15 0h15m-50 1h25m7 0h18m-52 1h52m-57 1h57m-60 1h60m-62 1h26m5 0h18m5 0h6m-65 1h28m11 0h14m-54 1h28m18 0h5m-53 1h31m-30 1h33m-33 1h35m-35 1h36m-35 1h36m-35 1h35m-33 1h34m-27 1h28m-26 1h27m-23 1h24m-21 1h21m-19 1h17m-13 1h9"/><path stroke="#0063A6" d="M88 71h1m-3 1h2m-3 1h3m-4 1h1m1 0h1M77 88h1m-3 1h4m-6 1h2m-4 1h2m-5 1h3m-7 1h4"/></g><g class="expression"><path stroke="#000000" d="M82 60h3m-38 1h8m24 0h3m3 0h3m-45 1h4m8 0h7m14 0h3m9 0h2m-50 1h3m18 0h4m9 0h2m14 0h2m-55 1h3m21 0h1m3 0h9m1 0h1m-41 1h2m25 0h1m6 0h1m5 0h1m-45 1h3m28 0h1m6 0h1m5 0h1m-48 1h3m31 0h1m6 0h1m5 0h1m-51 1h3m34 0h1m6 0h1m5 0h1m-55 1h4m38 0h1m6 0h1m4 0h1m-58 1h3m42 0h1m6 0h1m4 0h1m-58 1h2m43 0h1m6 0h1m4 0h1m-58 1h1m44 0h1m11 0h1m-58 1h1m44 0h1m11 0h1m-13 1h1m11 0h1m-12 1h1m10 0h1m-12 1h1m10 0h1m-12 1h1m10 0h1m-12 1h1m10 0h1m-12 1h1m9 0h1m-10 1h1m8 0h1m-10 1h1m8 0h1m-10 1h1m8 0h1m-10 1h1m7 0h1m-8 1h1m6 0h1m-8 1h1m5 0h1m-6 1h1m3 0h1m-4 1h3"/><path stroke="#EE2A00" d="M62 64h3m9 0h1m-7 1h1m1 0h4m-11 3h1m6 0h1m-2 1h1m0 3h1m-1 1h1m-7 1h1m9 4h1m-10 1h1m7 3h1m-8 1h1m0 2h1m0 1h1"/><path stroke="#FF7305" d="M63 65h5m6 0h1m-12 1h6m1 0h5m-12 1h5m2 0h5m-11 1h5m2 0h4m-11 1h5m2 0h4m-11 1h6m1 0h4m-11 1h6m1 0h4m-11 1h5m2 0h4m-11 1h5m2 0h4m-10 1h4m1 0h5m-10 1h10m-10 1h10m-10 1h8m1 0h1m-10 1h9m-8 1h8m-8 1h8m-8 1h8m-8 1h4m2 0h1m-6 1h1m3 0h2m-6 1h1m3 0h2m-5 1h4m-3 1h2"/><path stroke="#FFA525" d="M68 67h1m0 5h1m-1 1h1m-1 1h1m3 3h1m-4 5h2m-4 1h3m-3 1h3"/></g><g class="eyes"><path stroke="#000000" d="M29 31h5m41 0h5m-53 1h1m6 0h2m37 0h1m6 0h2m-56 1h1m9 0h1m35 0h1m9 0h1m-58 1h1m11 0h1m33 0h1m11 0h1m-60 1h1m13 0h1m31 0h1m13 0h1m-61 1h1m13 0h1m31 0h1m13 0h1m-62 1h1m15 0h1m29 0h1m15 0h1m-63 1h1m15 0h1m29 0h1m15 0h1m-63 1h1m15 0h1m29 0h1m15 0h1m-63 1h1m15 0h1m29 0h1m15 0h1m-63 1h1m15 0h1m29 0h1m15 0h1m-63 1h1m15 0h1m29 0h1m15 0h1m-63 1h1m15 0h1m29 0h1m15 0h1m-62 1h1m13 0h1m31 0h1m13 0h1m-61 1h1m13 0h1m31 0h1m13 0h1m-60 1h1m11 0h1m33 0h1m11 0h1m-58 1h1m9 0h1m35 0h1m9 0h1m-56 1h2m6 0h1m37 0h2m6 0h1m-53 1h6m40 0h6"/><path stroke="#DA9EE1" d="M28 32h1m45 0h1M24 42h1m45 0h1m-47 1h1m45 0h1m-46 2h1m45 0h1m-46 1h1m45 0h1m-46 1h1m45 0h1m-40 1h1m45 0h1"/><path stroke="#FFD9DC" d="M29 32h1m3 0h1m41 0h1m3 0h1m-53 1h1m7 0h1m37 0h1m7 0h1m-56 1h1m9 0h1m35 0h1m9 0h1m-58 1h1m11 0h1m33 0h1m11 0h1m-59 1h1m45 0h1m-48 1h1m13 0h1m31 0h1m13 0h1m-61 1h1m45 0h1m-47 1h1m45 0h1m-47 1h1m45 0h1m-47 1h1m45 0h1m-33 2h1m45 0h1m-60 1h1m45 0h1m-35 1h1m45 0h1m-49 2h1m45 0h1m-53 1h5m41 0h5"/><path stroke="#FFFFFF" d="M30 32h3m43 0h3m-51 1h7m39 0h7m-54 1h9m37 0h9m-56 1h11m35 0h11m-57 1h12m34 0h12m-59 1h13m33 0h13m-59 1h14m32 0h14m-60 1h5m41 0h5m-51 1h5m41 0h5m-51 1h5m41 0h5m-51 1h14m32 0h14m-60 1h13m33 0h13m-58 1h12m34 0h12m-58 1h11m35 0h11m-56 1h10m36 0h10m-55 1h7m39 0h7"/><path stroke="#FFD9DC" d="M30 39h1m7 0h1m37 0h1m7 0h1m-55 2h1m7 0h1m37 0h1m7 0h1"/><path stroke="#0099FC" d="M31 39h7m39 0h7m-54 1h8m38 0h8m-53 1h6m40 0h6"/><path stroke="#7ADAFF" d="M38 40h1m45 0h1m-48 1h1m45 0h1"/></g><g class="hat"/><g class="eyewear"/><g class="clothes"><path stroke="#000000" d="M10 79h1m-1 1h1m75 0h6M9 81h1m72 0h1m1 0h3m5 0h1M8 82h1m4 0h3m64 0h2m11 0h1M7 83h1m8 0h3m8 0h6m45 0h2m13 0h1M7 84h1m11 0h3m4 0h1m6 0h3m41 0h1m15 0h1M6 85h1m15 0h3m1 0h1m9 0h3m37 0h1m16 0h1M5 86h1m19 0h1m13 0h2m35 0h1m16 0h1M5 87h1m35 0h2m33 0h1m13 0h3M4 88h1m28 0h2m8 0h1m20 0h7m6 0h1m11 0h1M4 89h1m11 0h1m15 0h1m2 0h1m7 0h1m12 0h8m7 0h1m3 0h3m11 0h1M4 90h1m10 0h1m16 0h1m3 0h2m6 0h2m5 0h5m16 0h3m14 0h1M5 91h1m8 0h5m13 0h1m2 0h1m10 0h3m1 0h1m38 0h1M6 92h1m6 0h1m5 0h3m2 0h1m6 0h1m3 0h1m13 0h2m39 0h1M7 93h2m13 0h3m3 0h3m3 0h1m23 0h7m25 0h1M9 94h2m13 0h1m6 0h4m21 0h2m5 0h1m26 0h1m-67 1h1m30 0h1m7 0h1m26 0h1m-66 1h2m28 0h1m7 0h1m14 0h3m9 0h1m-64 1h3m11 0h2m12 0h1m7 0h1m11 0h3m2 0h1m8 0h1m-60 1h2m8 0h1m2 0h3m9 0h1m8 0h1m7 0h3m6 0h1m5 0h2m-57 1h4m3 0h1m6 0h4m4 0h2m8 0h1m4 0h3m10 0h5"/><path stroke="#8C92C0" d="M11 80h1m-2 1h2m75 0h5M9 82h2m81 0h1M8 83h3m-3 1h2m-3 1h3m3 0h3m65 0h1m9 0h1M6 86h3m1 0h1m7 0h1m68 0h3M6 87h1m1 0h1m1 0h2m19 0h1m52 0h3M5 88h2m4 0h1m1 0h3m3 0h1M5 89h2m5 0h4m1 0h2m3 0h1m13 0h1m44 0h1m6 0h1M5 90h3m3 0h1m4 0h6m2 0h1m14 0h1m35 0h3m5 0h2m2 0h2M6 91h2m11 0h5m4 0h1m8 0h2m1 0h1m35 0h2m4 0h1m4 0h2M7 92h1m14 0h2m1 0h3m1 0h2m13 0h1m11 0h2m16 0h1m12 0h2M9 93h1m16 0h2m18 0h2m4 0h2m15 0h2m16 0h1m-23 1h3m14 0h1m-55 1h2m24 0h1m9 0h2m13 0h1m3 0h1m-52 1h5m15 0h2m23 0h1m11 0h1m-55 1h5m9 0h5m20 0h1m13 0h1m-53 1h3m32 0h1m-4 1h1"/><path stroke="#3E4684" d="M11 82h2m72 0h5m-79 1h1m73 0h4m-79 1h1m72 0h3m-76 1h1m71 0h1M9 86h1m16 0h2m53 0h1M9 87h1m2 0h4m12 0h3m50 0h1M8 88h3m1 0h1m3 0h3m12 0h2m48 0h2m4 0h2M8 89h4m7 0h3m60 0h6M9 90h2m11 0h2m14 0h1m4 0h1m27 0h1m6 0h1m3 0h1m2 0h2m-63 1h4m11 0h1m3 0h1m28 0h1m5 0h4m4 0h1m-59 1h1m10 0h2m2 0h1m28 0h1m2 0h3m8 0h1m-45 1h4m4 0h1m14 0h4m3 0h3m11 0h1m-41 1h5m3 0h2m8 0h1m3 0h5m10 0h4m-52 1h2m13 0h4m12 0h3m11 0h3m1 0h2m-49 1h3m0 1h1"/><path stroke="#FFFFFF" d="M82 82h2m-4 1h4m-68 1h1m11 0h4m46 0h4m6 0h4m-73 1h3m8 0h5m43 0h3m5 0h4m-69 1h4m9 0h5m46 0h2m-63 1h3m11 0h1m-13 1h5m10 0h1m-13 1h3m33 0h5m-40 1h2m27 0h11m-17 1h6m-47 1h1m39 0h3m-44 1h1m25 0h4m37 0h2m-53 1h3m9 0h4m31 0h3m-47 1h3m8 0h5m24 0h4m12 0h2m-43 1h3m19 0h4m14 0h1m-20 1h3"/><path stroke="#F0F1F8" d="M84 82h1m-72 1h3m68 0h1m5 0h3m-79 1h2m1 0h2m8 0h1m4 0h1m49 0h1m-65 1h1m9 0h2m5 0h1m41 0h1m6 0h2m-73 1h3m4 0h1m56 0h4m2 0h2m-69 1h2m4 0h2m3 0h1m9 0h1m1 0h1m38 0h1M7 88h1m12 0h2m3 0h1m14 0h1m1 0h1M7 89h1m16 0h2m2 0h1m13 0h1m21 0h1m5 0h1M8 90h1m5 0h1m11 0h4m12 0h1m13 0h3m11 0h1M8 91h2m3 0h1m17 0h1m10 0h1m9 0h1m18 0h1m-61 1h1m30 0h1m8 0h1m9 0h8m2 0h1m6 0h8m-76 1h1m24 0h1m35 0h1m3 0h3m2 0h5m-60 1h2m3 0h1m4 0h2m6 0h2m28 0h1m3 0h1m-52 1h2m5 0h2m2 0h2m7 0h2m21 0h1m4 0h2m12 0h1m-61 1h1m11 0h3m5 0h2m15 0h2m4 0h2m11 0h1m1 0h1m-56 1h1m11 0h3m19 0h1m3 0h1m12 0h2m-51 1h1m12 0h3m34 0h1"/><path stroke="#C5C9E6" d="M90 82h2m-80 1h1m76 0h1m-79 1h3m72 0h2m4 0h1m-82 1h2m3 0h2m9 0h1m55 0h1m6 0h1m1 0h1m-82 1h2m3 0h2m1 0h1m8 0h6m48 0h1m7 0h3M7 87h1m10 0h4m10 0h5m3 0h1m36 0h1m1 0h2m1 0h2m3 0h3m-68 1h3m10 0h5m38 0h3m2 0h4m-64 1h1m2 0h2m9 0h5m36 0h3m-69 1h2m11 0h1m14 0h2m37 0h3m-72 1h3m16 0h2m5 0h1m4 0h1m2 0h2m5 0h1m7 0h12m2 0h3m7 0h3M8 92h3m25 0h3m2 0h1m3 0h4m6 0h1m2 0h3m8 0h2m2 0h1m15 0h1m-65 1h1m10 0h1m4 0h1m6 0h2m1 0h1m2 0h4m27 0h1m2 0h2m-53 1h2m6 0h1m5 0h3m24 0h4m5 0h3m-65 1h1m13 0h2m7 0h2m26 0h3m10 0h1m-63 1h1m1 0h3m11 0h2m5 0h2m2 0h1m9 0h1m8 0h4m4 0h3m3 0h2m-59 1h1m1 0h3m11 0h3m5 0h1m9 0h1m5 0h4m7 0h1m2 0h4m-56 1h1m1 0h2m3 0h1m9 0h6m10 0h6m11 0h1m1 0h3m-51 1h3m11 0h4m11 0h3"/></g><style>@keyframes cycle-rainbow-10201104192985108256592278657723806378641485830685587540088898372471768238230406366{0%,100%{stroke: #FF71C5;}8.33%{stroke: #FF97F6;}16.66%{stroke: #FEFFEF;}25%{stroke: #FFB21E;}33%{stroke: #E97632;}41.66%{stroke: #FFFFFF;}50%{stroke: #FFD9DC;}58.33%{stroke: #DA9EE1;}66.66%{stroke: #A40852;}75%{stroke: #DB0D47;}83.33%{stroke: #FA378E}}#froggi-10201104192985108256592278657723806378641485830685587540088898372471768238230406366 .animated-bg path{animation:cycle-rainbow-10201104192985108256592278657723806378641485830685587540088898372471768238230406366 2s step-start infinite;}#froggi-10201104192985108256592278657723806378641485830685587540088898372471768238230406366 .animated-bg path[stroke="#FF71C5"]{animation-delay: -.0s;}#froggi-10201104192985108256592278657723806378641485830685587540088898372471768238230406366 .animated-bg path[stroke="#FF97F6"]{animation-delay: -.1s;}#froggi-10201104192985108256592278657723806378641485830685587540088898372471768238230406366 .animated-bg path[stroke="#FEFFEF"]{animation-delay: -.2s;}#froggi-10201104192985108256592278657723806378641485830685587540088898372471768238230406366 .animated-bg path[stroke="#FFB21E"]{animation-delay: -.3s;}#froggi-10201104192985108256592278657723806378641485830685587540088898372471768238230406366 .animated-bg path[stroke="#E97632"]{animation-delay: -.4s;}#froggi-10201104192985108256592278657723806378641485830685587540088898372471768238230406366 .animated-bg path[stroke="#FFFFFF"]{animation-delay: -.5s;}#froggi-10201104192985108256592278657723806378641485830685587540088898372471768238230406366 .animated-bg path[stroke="#FFD9DC"]{animation-delay: -.6s;}#froggi-10201104192985108256592278657723806378641485830685587540088898372471768238230406366 .animated-bg path[stroke="#DA9EE1"]{animation-delay: -.7s;}#froggi-10201104192985108256592278657723806378641485830685587540088898372471768238230406366 .animated-bg path[stroke="#A40852"]{animation-delay: -.8s;}#froggi-10201104192985108256592278657723806378641485830685587540088898372471768238230406366 .animated-bg path[stroke="#DB0D47"]{animation-delay: -.9s;}#froggi-10201104192985108256592278657723806378641485830685587540088898372471768238230406366 .animated-bg path[stroke="#FA378E"]{animation-delay: -.10s;}#froggi-10201104192985108256592278657723806378641485830685587540088898372471768238230406366 .animated-bg path[stroke="#FEFFEF"]{animation-delay: -.11s;}@keyframes cycle-rainbow-10201104192985108256592278657723806378641485830685587540088898372471768238230406366{0%,100%{stroke: #FF994A;}8.33%{stroke: #FFCE41;}16.66%{stroke: #FFFB66;}25%{stroke: #CDFF39;}33%{stroke: #68FF2D;}41.66%{stroke: #00FACA;}50%{stroke: #28ABFF;}58.33%{stroke: #1E6FFF;}66.66%{stroke: #C837FF;}75%{stroke: #FF45C0;}83.33%{stroke: #FF5B5B}}#froggi-10201104192985108256592278657723806378641485830685587540088898372471768238230406366 .animated-bg path{animation:cycle-rainbow-10201104192985108256592278657723806378641485830685587540088898372471768238230406366 2s step-start infinite;}#froggi-10201104192985108256592278657723806378641485830685587540088898372471768238230406366 .animated-bg path[stroke="#FF994A"]{animation-delay: -.0s;}#froggi-10201104192985108256592278657723806378641485830685587540088898372471768238230406366 .animated-bg path[stroke="#FFCE41"]{animation-delay: -.1s;}#froggi-10201104192985108256592278657723806378641485830685587540088898372471768238230406366 .animated-bg path[stroke="#FFFB66"]{animation-delay: -.2s;}#froggi-10201104192985108256592278657723806378641485830685587540088898372471768238230406366 .animated-bg path[stroke="#CDFF39"]{animation-delay: -.3s;}#froggi-10201104192985108256592278657723806378641485830685587540088898372471768238230406366 .animated-bg path[stroke="#68FF2D"]{animation-delay: -.4s;}#froggi-10201104192985108256592278657723806378641485830685587540088898372471768238230406366 .animated-bg path[stroke="#00FACA"]{animation-delay: -.5s;}#froggi-10201104192985108256592278657723806378641485830685587540088898372471768238230406366 .animated-bg path[stroke="#28ABFF"]{animation-delay: -.6s;}#froggi-10201104192985108256592278657723806378641485830685587540088898372471768238230406366 .animated-bg path[stroke="#1E6FFF"]{animation-delay: -.7s;}#froggi-10201104192985108256592278657723806378641485830685587540088898372471768238230406366 .animated-bg path[stroke="#C837FF"]{animation-delay: -.8s;}#froggi-10201104192985108256592278657723806378641485830685587540088898372471768238230406366 .animated-bg path[stroke="#FF45C0"]{animation-delay: -.9s;}#froggi-10201104192985108256592278657723806378641485830685587540088898372471768238230406366 .animated-bg path[stroke="#FF5B5B"]{animation-delay: -.10s;}#froggi-10201104192985108256592278657723806378641485830685587540088898372471768238230406366 .animated-bg path[stroke="#FFFB66"]{animation-delay: -.11s;}</style></svg>