<svg xmlns="http://www.w3.org/2000/svg" viewBox="0 0 100 100" shape-rendering="crispEdges" id="froggi-10418522971467150311652027315186243265913946503772757977603137273639328988845345154" width="300" height="300"><g class="bg"><path stroke="#161E64" d="M0 0h100M0 1h100M0 2h100M0 3h100M0 4h100M0 5h100M0 6h100M0 7h100M0 8h100M0 9h100M0 10h100M0 11h100M0 12h100M0 13h100M0 14h100M0 15h100M0 16h100M0 17h100M0 18h100M0 19h100M0 20h100M0 21h100M0 22h100M0 23h100M0 24h100M0 25h100M0 26h100M0 27h100M0 28h100M0 29h100M0 30h100M0 31h100M0 32h100M0 33h100M0 34h100M0 35h100M0 36h100M0 37h100M0 38h100M0 39h100M0 40h100M0 41h100M0 42h100M0 43h100M0 44h100M0 45h100M0 46h100M0 47h100M0 48h100M0 49h100M0 50h100M0 51h100M0 52h100M0 53h100M0 54h100M0 55h100M0 56h100M0 57h100M0 58h100M0 59h100M0 60h100M0 61h100M0 62h100M0 63h100M0 64h100M0 65h100M0 66h100M0 67h100M0 68h100M0 69h100M0 70h100M0 71h100M0 72h100M0 73h100M0 74h100M0 75h100M0 76h100M0 77h100M0 78h100M0 79h100M0 80h100M0 81h100M0 82h100M0 83h100M0 84h100M0 85h100M0 86h100M0 87h100M0 88h100M0 89h100M0 90h100M0 91h100M0 92h100M0 93h100M0 94h100M0 95h100M0 96h100M0 97h100M0 98h100M0 99h100"/></g><g class="body"><path stroke="#000000" d="M25 26h11m-13 1h2m11 0h3m33 0h8m-58 1h1m16 0h2m29 0h2m8 0h2m-61 1h1m19 0h1m27 0h1m12 0h1m-63 1h1m21 0h1m25 0h1m14 0h1m-65 1h1m9 0h5m9 0h1m23 0h1m7 0h5m4 0h1m-67 1h1m8 0h1m7 0h1m8 0h2m20 0h1m6 0h1m7 0h1m3 0h1m-68 1h1m7 0h1m9 0h1m9 0h20m6 0h1m9 0h1m3 0h1m-70 1h1m7 0h1m11 0h1m33 0h1m11 0h1m2 0h1m-70 1h1m6 0h1m45 0h1m16 0h1m-72 1h1m7 0h1m45 0h1m16 0h1m-72 1h1m6 0h1m45 0h1m18 0h1m-73 1h1m6 0h1m45 0h1m18 0h1m-74 1h1m7 0h1m15 0h1m29 0h1m15 0h1m2 0h1m-74 1h1m7 0h1m15 0h1m29 0h1m15 0h1m2 0h1m-74 1h1m7 0h2m14 0h1m29 0h2m14 0h1m2 0h1m-74 1h1m7 0h1m1 0h1m12 0h2m29 0h1m1 0h1m12 0h2m2 0h1m-74 1h1m7 0h1m2 0h1m10 0h1m1 0h1m29 0h1m2 0h1m10 0h1m1 0h1m2 0h1m-74 1h1m8 0h1m2 0h2m6 0h2m1 0h1m31 0h1m2 0h2m6 0h2m1 0h1m3 0h1m-74 1h1m8 0h1m4 0h6m3 0h1m31 0h1m4 0h6m3 0h1m2 0h1m-74 1h1m10 0h1m11 0h1m33 0h1m11 0h1m3 0h1m-74 1h1m11 0h1m9 0h1m35 0h1m9 0h1m4 0h1m-76 1h2m13 0h2m6 0h1m37 0h2m6 0h1m5 0h1m-78 1h2m17 0h6m40 0h6m6 0h1M8 50h2m77 0h3M7 51h1m82 0h2M6 52h1m85 0h1M6 53h1m86 0h1M5 54h1m52 0h1m11 0h1m23 0h1M5 55h1m53 0h1m9 0h1m24 0h1M5 56h1m89 0h1M5 57h1m89 0h1M5 58h1m89 0h1M5 59h1m89 0h1M5 60h1m89 0h1M5 61h1m89 0h1M5 62h1m88 0h1M5 63h1m88 0h1M6 64h1m86 0h1M6 65h1m86 0h1M6 66h1m86 0h1M6 67h1m85 0h1M7 68h1m84 0h1M7 69h1m83 0h1M7 70h1m82 0h1M7 71h1m81 0h1M8 72h1m79 0h1M8 73h1m79 0h1M9 74h1m77 0h1M9 75h1m76 0h1m-77 1h1m75 0h1m-77 1h1m74 0h1m-75 1h1m73 0h1m-75 1h1m72 0h1m-73 1h1m71 0h1m-73 1h1m70 0h1m-71 1h1m68 0h1m-70 1h1m67 0h1m-69 1h1m66 0h1m-67 1h1m64 0h1m-66 1h1m63 0h1m-64 1h1m61 0h2m-64 1h1m62 0h1m-65 1h2m63 0h1m-66 1h1m64 0h1m-67 1h1m66 0h1m-69 1h1m67 0h1m-69 1h1m68 0h1m-71 1h1m70 0h1m-72 1h1m71 0h1m-74 1h1m72 0h1M9 97h1m73 0h1M8 98h1m75 0h1M8 99h1m76 0h1"/><path stroke="#002CAB" d="M25 27h1m-3 1h1m-2 1h1m-2 1h1m-2 1h1m-2 1h1m14 0h1m-17 2h1m65 1h1M15 46h1m-2 2h1m-3 1h1m-3 1h1m-3 1h1m-2 1h1m-2 2h1m-1 1h1m-1 8h1m1 8h1m0 2h1m2 6h1m0 2h1m2 7h1m-1 1h1m-2 1h3m-4 1h1m-2 1h1m-3 4h1"/><path stroke="#107EE2" d="M26 27h2m-4 1h2m12 0h1m-16 1h2m15 0h1m-19 1h2m-3 1h2m11 0h2m-16 1h2m14 0h1m45 0h1m-64 1h2m62 0h1m-37 1h3m12 0h1m21 0h1m0 2h1m-66 4h1m-2 1h2m-3 1h4m-5 1h4m-5 1h4m-4 1h3m-3 1h2m68 0h1m-72 1h1m69 0h2m-72 1h1m-3 1h2m-4 1h3m-5 1h4m10 0h3m63 0h1M8 52h4m8 0h4m67 0h1M7 53h4m7 0h4M7 54h3m6 0h4M7 55h2m6 0h3M6 56h3m3 0h5M6 57h2m2 0h5m-9 1h1m1 0h6m9 0h2m62 0h1M6 59h7m11 0h2m59 0h2M6 60h5m70 0h4M6 61h4m23 0h1M6 62h3m31 0h7m26 0h1M7 63h1m63 0h2m-61 1h2m54 0h3m-60 1h3m52 0h2m-58 1h4m-5 1h5m-6 1h7m-7 1h7m-7 1h7m-6 1h5m-5 1h4m-3 1h1m5 2h1m-2 1h2m-3 1h4m-5 1h5m-5 1h4m-4 1h3m-2 1h1m4 4h2m-4 1h5m-6 1h6m-5 1h4m-4 1h3m2 0h1m-2 1h1m-7 1h2m3 0h1m-7 1h2m2 0h2m-7 1h1m2 0h3m-7 1h5m-5 1h3m5 1h5m-7 1h6m-9 1h8m-10 1h8"/><path stroke="#2941D1" d="M28 27h6m-8 1h2m-3 1h2m44 0h1m7 0h3m-58 1h5m49 0h5m-60 1h4m41 0h1m12 0h2m-60 1h3m41 0h2m-46 1h2m8 0h2m32 0h1m11 0h2m-59 1h2m9 0h1m1 0h1m2 0h1m5 0h2m5 0h5m23 0h1m1 0h1m-60 1h2m3 0h1m5 0h1m2 0h1m2 0h1m4 0h2m4 0h4m9 0h2m4 0h1m3 0h1m5 0h1m2 0h1m-61 1h2m2 0h2m5 0h1m3 0h1m1 0h2m3 0h1m4 0h4m15 0h2m2 0h2m5 0h1m3 0h1m2 0h1m-66 1h2m2 0h3m5 0h1m3 0h2m1 0h4m4 0h5m14 0h2m2 0h3m5 0h1m3 0h2m1 0h2m-67 1h1m3 0h3m5 0h1m4 0h1m1 0h3m4 0h5m15 0h2m2 0h3m5 0h1m4 0h1m1 0h2m-63 1h3m5 0h1m4 0h1m1 0h2m4 0h5m17 0h1m2 0h3m5 0h1m4 0h1m2 0h1m-63 1h3m5 0h1m4 0h1m1 0h1m4 0h5m18 0h1m2 0h3m5 0h1m4 0h1m-60 1h3m5 0h1m4 0h1m1 0h1m3 0h5m6 0h2m14 0h3m5 0h1m4 0h1m-63 1h1m3 0h2m5 0h1m9 0h5m4 0h6m14 0h2m5 0h1m-58 1h1m4 0h2m4 0h1m8 0h5m4 0h8m14 0h2m4 0h1m-58 1h2m1 0h1m3 0h5m6 0h6m3 0h11m9 0h1m1 0h1m3 0h5m-58 1h2m1 0h2m10 0h1m1 0h6m3 0h14m6 0h2m1 0h2m10 0h1m-61 1h2m1 0h2m8 0h1m1 0h6m3 0h14m2 0h8m1 0h2m8 0h1m-60 1h1m3 0h2m6 0h1m1 0h6m2 0h15m2 0h8m3 0h2m6 0h1m-58 1h1m4 0h6m1 0h6m2 0h14m3 0h8m6 0h6m2 0h1m-59 1h1m9 0h6m2 0h14m3 0h8m17 0h2m-61 1h1m3 0h10m2 0h14m3 0h8m8 0h6m3 0h3m-59 1h11m2 0h14m2 0h9m7 0h1m1 0h5m3 0h1m-56 1h4m1 0h5m2 0h14m2 0h10m6 0h7m-51 1h2m2 0h6m1 0h13m3 0h3m4 0h3m8 0h5m-51 1h2m2 0h6m1 0h13m3 0h2m3 0h1m2 0h3m7 0h5m-52 1h2m3 0h20m3 0h5m3 0h3m3 0h2m2 0h5m17 0h1m-71 1h3m3 0h19m4 0h7m3 0h1m3 0h2m1 0h6m-47 1h19m4 0h11m3 0h9m4 0h3m-54 1h18m6 0h10m2 0h10m4 0h6m-56 1h8m1 0h8m6 0h10m1 0h11m4 0h6m-51 1h3m1 0h7m7 0h10m1 0h11m4 0h3m-40 1h3m11 0h18m5 0h1m-20 1h13m-9 1h8"/><path stroke="#221691" d="M34 27h2m36 1h1m-3 1h1m-42 1h5m7 0h1m27 0h1m-43 1h2m13 0h1m37 0h1m-59 1h1m3 0h1m2 0h5m9 0h1m31 0h5m-59 1h2m2 0h1m1 0h6m2 0h1m1 0h1m6 0h2m20 0h1m6 0h6m2 0h1m-63 1h3m2 0h1m1 0h7m3 0h1m9 0h1m13 0h2m1 0h4m5 0h7m3 0h1m-65 1h4m3 0h2m1 0h5m4 0h1m27 0h1m5 0h2m1 0h5m4 0h1m-66 1h4m3 0h1m2 0h5m38 0h1m2 0h5m-62 1h4m3 0h1m3 0h5m37 0h1m3 0h5m-62 1h4m3 0h1m3 0h5m37 0h1m3 0h5m-62 1h4m3 0h1m3 0h5m37 0h1m3 0h5m7 0h1m-71 1h4m4 0h1m3 0h5m37 0h1m3 0h5m7 0h2m-72 1h3m9 0h5m41 0h5m7 0h2m-72 1h2m6 0h1m3 0h5m37 0h1m3 0h5m7 0h2m-72 1h1m4 0h1m2 0h2m3 0h4m37 0h2m3 0h4m7 0h2m-68 1h2m4 0h1m45 0h1m12 0h3m-69 1h3m5 0h1m8 0h1m36 0h1m8 0h1m2 0h2m-69 1h5m5 0h8m38 0h8m2 0h2m-70 1h7m6 0h6m40 0h6m2 0h2m-69 1h8m58 0h1m3 0h1m-72 1h10m3 0h1m52 0h1m-68 1h12m-13 1h10m3 0h2m-16 1h8m4 0h4m-17 1h7m4 0h6m64 0h1m-83 1h6m4 0h7m29 0h1m12 0h1m1 0h1m21 0h1M9 55h6m3 0h7M9 56h3m8 0h3m36 0h3m6 0h1m21 0h2M8 57h2m5 0h1m5 0h3m65 0h2M7 58h1m6 0h1m73 0h1m-76 1h2m11 0h1m-16 1h3m12 0h5m47 0h3m-71 1h4m15 0h4m1 0h4m38 0h3M9 62h5m22 0h4m7 0h5m22 0h2M8 63h6m38 0h4m17 0h1M7 64h5m44 0h5M7 65h4m50 0h5m2 0h1M7 66h3m-2 1h1m5 4h1m-2 1h2m-4 1h5m-6 1h6m-5 1h5m-5 1h4m-3 1h2m-2 1h1m4 1h2m-3 1h3m-4 1h4m-5 1h5m-5 1h6m-5 1h5m-5 1h4m-3 1h1m4 2h2m-3 1h2m-4 1h3m1 0h2m-5 1h1m1 0h3m-8 1h2m2 0h4m-10 1h2m3 0h1m1 0h4m-8 1h8m-10 1h10m-13 1h8m5 0h1m-15 1h7m6 0h2m-16 1h5m8 0h3m-16 1h3m8 0h5"/><path stroke="#1B70FF" d="M28 28h8m-9 1h8m5 1h1m29 0h1m-33 1h1m2 0h1m27 0h1m-32 1h2m1 0h2m-5 1h6m-10 1h1m4 0h5m36 0h1m-47 1h2m4 0h4m10 0h1m4 0h2m1 0h1m17 0h2m-48 1h3m4 0h3m9 0h1m4 0h2m2 0h3m15 0h3m-49 1h3m20 0h2m2 0h2m17 0h3m-49 1h1m1 0h2m18 0h2m2 0h3m3 0h1m13 0h1m1 0h2m-50 1h4m17 0h1m2 0h5m4 0h1m12 0h4m-50 1h1m1 0h2m19 0h5m5 0h1m12 0h1m1 0h2m-50 1h1m1 0h2m19 0h4m2 0h2m1 0h3m11 0h1m1 0h2m-50 1h1m1 0h1m21 0h2m1 0h8m11 0h1m1 0h1m-49 1h1m24 0h10m11 0h1m-21 1h9m-7 1h1m1 0h4m-44 2h2m-1 1h2m0 1h1m-1 1h3m54 1h5m-7 1h5m-29 1h2m1 0h1m9 0h2m8 0h5m-26 1h1m19 0h6m-7 1h7m4 0h3m-14 1h6m-4 1h3m-36 4h4m0 1h1m1 0h2m0 1h1m1 0h2m1 1h2m1 0h3"/><path stroke="#7ADAFF" d="M36 28h2m36 0h4m-43 1h4m37 0h2m-44 1h4m36 0h4m-42 1h2m32 0h4m-37 1h1m31 0h3m-3 1h2m-16 2h4m2 0h1m-8 1h4m2 0h2m-9 1h4m2 0h2m3 0h2m-12 1h2m2 0h2m5 0h1m-10 1h2m-2 1h1m5 0h2m-3 1h2m-3 1h1m2 3h1m17 7h1m-12 1h1m8 0h2m-3 1h2m-2 1h1m6 1h2m2 0h1m-6 1h4m-5 1h3m-43 3h1m1 0h2"/><path stroke="#2DB5FF" d="M73 28h1m4 0h2m-41 1h1m38 0h1m-5 2h1m8 0h1m-12 1h1m10 0h2m-17 1h1m2 0h1m12 0h2m-36 1h1m5 0h4m7 0h4m14 0h1m-40 1h4m16 0h3m16 0h2m-42 1h4m16 0h3m-24 1h4m18 0h1m-45 1h1m20 0h4m5 0h2m-33 1h2m19 0h4m5 0h4m-34 1h2m18 0h4m5 0h6m-35 1h2m18 0h3m5 0h6m-15 1h3m5 0h4m-12 1h2m5 0h4m-12 1h1m6 0h3m-4 1h3m-4 1h3m14 0h2m-20 1h2m15 0h2m8 0h2m-30 1h2m14 0h3m8 0h4m11 0h2m-45 1h2m14 0h3m8 0h7m7 0h3m-45 1h2m14 0h3m8 0h8m6 0h3m-45 1h2m14 0h2m9 0h7m1 0h1m5 0h3m-51 1h1m5 0h2m14 0h2m10 0h6m7 0h2m-51 1h2m6 0h1m13 0h3m10 0h5m8 0h1m-50 1h2m6 0h1m13 0h3m11 0h4m8 0h1m-51 1h3m20 0h3m11 0h3m9 0h2m-52 1h3m19 0h4m11 0h3m9 0h4m-55 1h4m19 0h4m11 0h3m9 0h4m10 0h1m-64 1h2m18 0h6m10 0h2m10 0h4m9 0h1m-52 1h1m8 0h6m10 0h1m11 0h4m6 0h3m-51 1h1m7 0h7m10 0h1m11 0h4m-34 1h2m1 0h1m2 0h1m22 0h5m-6 1h4m-5 1h3m-4 1h1"/><path stroke="#A7FAFF" d="M72 29h4m-38 1h1m32 0h3m-10 8h1m-2 1h2m23 13h3m-4 1h4m-5 1h5m-5 1h4m-3 1h2"/><path stroke="#45B2FF" d="M39 30h1m-1 1h2m-1 1h1m22 5h1m-29 1h1m27 0h1m17 0h1m-17 1h2m-32 1h1m28 0h3m14 0h1m-47 1h1m29 0h1m15 0h1m-47 1h1m1 0h1m43 0h1m1 0h1m-49 1h2m44 0h2m-49 1h1m45 0h1m-55 5h1m60 3h1m-28 1h1m25 0h1m4 0h1m-31 1h1m29 0h2m-40 8h1m3 1h1m5 1h1"/><path stroke="#150861" d="M28 32h1m45 0h1m5 0h1m-43 3h1m-22 1h1m20 0h1m45 0h1m-46 1h1m45 0h1m-47 1h1m45 0h1m-70 1h1m21 4h1m45 0h1m-48 1h1m45 0h1m-56 1h1m6 0h1m38 0h1m6 0h1m-25 9h1m0 1h1m1 0h1m9 0h1M7 67h1m2 8h1m0 2h1m2 7h1m0 2h1m1 5h2m1 2h1m-11 4h1m-2 1h1m-1 1h1"/><path stroke="#FF7305" d="M17 56h1m75 0h1m-78 1h3m75 0h1m-80 1h4m2 0h1m68 0h1m3 0h1m-80 1h3m70 0h1m5 0h1m-81 1h4m6 0h2m60 0h1m-73 1h4m8 0h2m52 0h1m-67 1h4m11 0h6m42 0h1m-64 1h4m20 0h12m25 0h1m17 0h1m-80 1h4m35 0h2m17 0h1m-59 1h4m39 0h3m10 0h1m21 0h1m-79 1h4m45 0h1m3 0h1m23 0h1m-78 1h5m72 0h1m-77 1h4m-4 1h4m36 0h5m18 0h5m6 0h2m-76 1h4m33 0h11m14 0h13m-75 1h5m31 0h18m5 0h14m-73 1h5m32 0h20m4 0h10m-70 1h5m34 0h9m11 0h10m-69 1h5m36 0h7m9 0h10m-66 1h5m36 0h7m7 0h10m-65 1h6m36 0h8m4 0h11m-64 1h6m35 0h22m-63 1h8m34 0h21m-62 1h14m28 0h20m-62 1h16m27 0h18m-61 1h20m24 0h16m-59 1h22m21 0h16m-59 1h24m17 0h17m-57 1h27m9 0h21m-56 1h55m-55 1h55m-54 1h53m-52 1h51m-51 1h50m-48 1h46m-45 1h43m-43 1h39m-38 1h22m1 0h1m2 0h1m-26 1h27m-27 1h31m-31 1h33m-33 1h35m-35 1h36m-36 1h37"/><path stroke="#EE2A00" d="M18 56h2m72 0h1m1 0h1m-76 1h2m70 0h2m-71 1h1m66 0h1m-67 1h1m63 0h1m-3 1h1m8 0h1m-67 1h1m50 0h1m14 0h1m-60 1h1m40 0h1m-27 1h2m22 0h1m-20 1h1m4 1h1m8 0h1m-6 1h3m25 0h1m-2 2h1m-4 3h1m-17 1h4m10 0h1m-23 1h11m-11 1h9m10 0h1m1 0h1m-21 1h7m10 0h4m-19 1h4m11 0h4m-5 1h4m-4 1h4m-4 1h3m-4 1h4m-5 1h4m-64 1h1m59 0h3m-4 1h3m-61 1h1m57 0h2m-59 1h1m55 0h2m-2 1h1m-56 1h1m53 0h1m-54 1h1m51 0h2m-54 1h1m50 0h1m-51 1h2m46 0h1m2 0h4m-55 1h3m43 0h1m2 0h7m-56 1h3m39 0h2m3 0h9m-55 1h3m22 0h1m1 0h2m1 0h9m4 0h13m-56 1h4m27 0h26m-57 1h4m31 0h23m-57 1h3m33 0h21m-57 1h3m35 0h19m-57 1h3m36 0h19m-58 1h3m37 0h19"/><path stroke="#FFA525" d="M93 57h1m-75 1h2m70 0h3m-76 1h5m66 0h5m-76 1h6m63 0h7m-76 1h8m55 0h13m-76 1h11m49 0h16m-76 1h20m38 0h17m-75 1h35m20 0h20m-75 1h39m14 0h21m-74 1h45m5 0h23m-72 1h72m-72 1h72m-72 1h36m5 0h18m5 0h6m-70 1h33m11 0h14m-57 1h31m18 0h5m-54 1h32m-31 1h34m-34 1h36m-35 1h36m-35 1h36m-35 1h35m-33 1h34m-27 1h28m-26 1h27m-23 1h24m-21 1h21m-19 1h17m-13 1h9"/><path stroke="#961600" d="M71 64h1m15 8h1m-3 1h3m-4 1h1m1 0h1M77 88h1m-3 1h4m-6 1h2m-4 1h2m-5 1h3m-7 1h4"/></g><g class="expression"><path stroke="#000000" d="M15 54h8m-9 1h5m68 0h3m-76 1h2m3 0h2m67 0h4m-78 1h2m5 0h2m66 0h3m-78 1h2m7 0h1m63 0h2m1 0h2m-78 1h1m1 0h1m7 0h2m59 0h2m3 0h2m-75 1h1m8 0h3m50 0h6m4 0h3m-74 1h1m10 0h7m40 0h3m10 0h3m-73 1h1m16 0h16m22 0h2m12 0h3m-71 1h1m2 0h1m28 0h4m16 0h2m14 0h2m-69 1h1m2 0h2m30 0h5m8 0h2m17 0h1m-67 1h1m3 0h3m32 0h8m13 0h1m3 0h2m-65 1h1m5 0h4m45 0h2m5 0h1m-62 1h1m8 0h4m37 0h3m6 0h2m-60 1h2m42 0h2m10 0h2m-56 1h3m16 0h8m4 0h5m16 0h2m-51 1h2m45 0h2m-47 1h2m41 0h2m-43 1h3m35 0h3m-38 1h6m25 0h4m-29 1h7m13 0h5m-18 1h13"/><path stroke="#7E7569" d="M16 56h3m-3 1h2m-2 1h2m71 0h1m-73 1h2m70 0h1m-71 1h1m0 1h1m67 0h1m-68 1h1m65 0h1m-66 1h1m62 0h3m-65 1h1m60 0h1m2 0h1m-63 1h1m2 1h1m3 1h1m4 0h1m29 1h2"/><path stroke="#EE2A00" d="M92 56h1m-78 3h1m-2 1h3m-3 1h2m1 0h1m-4 1h1m3 0h1m-5 1h1m4 0h1m0 1h1m0 1h1m7 5h1m1 1h1m4 2h1m5 1h1m25 0h1m-21 1h2m-12 3h2m0 1h4m21 0h4m-26 1h6m11 0h6m-20 1h17m-13 1h8"/><path stroke="#DFDECD" d="M18 57h1m-1 1h1m2 0h1m-3 1h1m2 0h1m-3 1h1m1 0h1m1 0h2m60 0h2m-66 1h1m3 0h2m52 0h3m1 0h4m-66 1h1m5 0h6m43 0h4m-57 1h1m3 0h1m2 0h8m1 0h9m26 0h1m-54 1h1m5 0h1m7 0h3m1 0h9m1 0h5m17 0h3m8 0h1m-61 1h2m30 0h3m1 0h1m10 0h3m3 0h1m7 0h1m-61 1h2m1 0h1m11 0h1m23 0h1m3 0h1m12 0h4m-59 1h1m3 0h3m6 0h2m37 0h3m2 0h1m-56 1h1m6 0h3m5 0h1m6 0h1m8 0h1m12 0h5m-39 1h7m22 0h5m4 0h1m2 0h1m-36 1h24m2 0h1m5 0h1m-42 1h1m16 0h1m8 0h1m13 0h1m-38 1h2m32 0h1m-29 1h3m18 0h4m-16 1h8m1 0h2"/><path stroke="#B8AFA2" d="M19 57h2m1 1h1m0 1h1m63 0h2m-71 1h1m66 0h1m2 0h1m-70 1h1m8 0h1m50 0h1m3 0h1m-64 1h1m13 0h2m40 0h1m6 0h1m-63 1h1m17 0h1m9 0h3m22 0h1m1 0h1m6 0h1m-45 1h1m9 0h1m5 0h1m15 0h1m4 0h1m8 0h2m-48 1h1m9 0h1m8 0h1m1 0h1m8 0h1m10 0h2m1 0h1m1 0h1m-60 1h1m22 0h1m8 0h1m5 0h3m9 0h2m6 0h1m-59 1h1m22 0h1m8 0h1m12 0h3m-42 1h1m4 0h5m-10 1h1m11 0h2m8 0h4m5 0h3m-34 1h1m7 0h1m-1 1h1m28 0h1m-30 1h1m10 0h1m8 0h1m8 0h1m-19 1h1m8 0h1m-11 1h2m8 0h1"/><path stroke="#FF7305" d="M92 57h1m-1 1h1m-1 1h2m-2 1h2m-78 1h1m75 0h2m-79 1h3m73 0h3m-79 1h4m71 0h1m1 0h1m-79 1h6m69 0h1m1 0h2m-78 1h3m2 0h1m67 0h1m2 0h1m-76 1h2m3 0h2m63 0h1m3 0h2m-74 1h1m4 0h1m61 0h1m3 0h2m-8 1h1m3 0h4m-65 1h1m54 0h2m2 0h4m-61 1h1m50 0h7m-9 1h8m-10 1h2m3 0h4m-12 1h2m5 0h4m-55 1h2m10 0h2m27 0h2m8 0h3m-54 1h4m14 0h2m15 0h2m13 0h4m-53 1h5m42 0h5m-51 1h8m36 0h5m-48 1h7m2 0h2m29 0h7m-48 1h10m4 0h1m19 0h1m4 0h8m-44 1h10m6 0h11m6 0h9m-39 1h10m17 0h10m-32 1h9m8 0h13m-28 1h25m-21 1h10"/><path stroke="#FFFFFF" d="M19 58h2m-1 1h2m-1 1h1m1 0h1m-3 1h1m1 0h3m-3 1h5m53 0h2m1 0h3m-62 1h3m1 0h2m46 0h6m1 0h1m-59 1h2m1 0h7m39 0h1m1 0h6m-54 1h10m1 0h9m1 0h5m18 0h3m1 0h3m-47 1h6m1 0h9m1 0h8m1 0h4m5 0h8m-49 1h2m11 0h9m1 0h8m1 0h12m9 0h2m-54 1h4m1 0h1m9 0h6m1 0h8m1 0h8m9 0h5m-51 1h2m1 0h4m34 0h4m1 0h2m-45 1h7m1 0h2m24 0h2m1 0h5m1 0h1m-42 1h5m1 0h10m1 0h8m1 0h8m1 0h4m-35 1h1m1 0h10m1 0h8m1 0h8m1 0h1m-25 1h5m1 0h8m1 0h3"/><path stroke="#FFA525" d="M91 63h1m-2 1h1m-73 1h2m69 0h2m-73 1h3m66 0h3m-71 1h4m63 0h3m-70 1h6m59 0h3m-67 1h6m57 0h2m-64 1h7m-6 1h9m-8 1h11m43 0h3m-56 1h12m38 0h5m-54 1h3m2 0h10m31 0h8m-53 1h2m4 0h14m19 0h13m-51 1h2m5 0h42m-48 1h2m8 0h36m-45 1h2m11 0h29m-26 1h19"/></g><g class="eyes"><path stroke="#000000" d="M29 31h5m41 0h5m-53 1h1m6 0h2m37 0h1m6 0h2m-56 1h1m9 0h1m35 0h1m9 0h1m-58 1h1m11 0h1m33 0h1m11 0h1m-60 1h1m13 0h1m31 0h1m13 0h1m-61 1h1m13 0h1m31 0h1m13 0h1m-62 1h1m15 0h1m29 0h1m15 0h1m-63 1h1m15 0h1m29 0h1m15 0h1m-63 1h1m15 0h1m29 0h1m15 0h1m-63 1h1m15 0h1m29 0h1m15 0h1m-63 1h1m15 0h1m29 0h1m15 0h1m-63 1h1m15 0h1m29 0h1m15 0h1m-63 1h1m15 0h1m29 0h1m15 0h1m-62 1h1m13 0h1m31 0h1m13 0h1m-61 1h1m13 0h1m31 0h1m13 0h1m-60 1h1m11 0h1m33 0h1m11 0h1m-58 1h1m9 0h1m35 0h1m9 0h1m-56 1h2m6 0h1m37 0h2m6 0h1m-53 1h6m40 0h6"/><path stroke="#00A7F2" d="M28 32h1m45 0h1M24 42h1m45 0h1m-47 1h1m45 0h1m-46 2h1m45 0h1m-46 1h1m45 0h1m-46 1h1m45 0h1m-40 1h1m45 0h1"/><path stroke="#2DE7FF" d="M29 32h1m3 0h1m41 0h1m3 0h1m-53 1h1m7 0h1m37 0h1m7 0h1m-56 1h1m9 0h1m35 0h1m9 0h1m-58 1h1m11 0h1m33 0h1m11 0h1m-59 1h1m45 0h1m-48 1h1m13 0h1m31 0h1m13 0h1m-61 1h1m45 0h1m-47 1h1m45 0h1m-47 1h1m45 0h1m-47 1h1m45 0h1m-33 2h1m45 0h1m-60 1h1m45 0h1m-35 1h1m45 0h1m-49 2h1m45 0h1m-53 1h5m41 0h5"/><path stroke="#7AFFFD" d="M30 32h3m43 0h3m-51 1h7m39 0h7m-54 1h9m37 0h9m-56 1h7m39 0h7m-53 1h6m40 0h6m-53 1h7m39 0h7m-53 1h7m6 0h1m32 0h7m6 0h1m-60 1h7m6 0h1m32 0h7m6 0h1m-60 1h7m6 0h1m32 0h7m6 0h1m-60 1h7m6 0h1m32 0h7m6 0h1m-60 1h7m6 0h1m32 0h7m6 0h1m-60 1h7m5 0h1m33 0h7m5 0h1m-58 1h7m3 0h2m34 0h7m3 0h2m-58 1h11m35 0h11m-56 1h10m36 0h10m-55 1h7m39 0h7"/><path stroke="#2DE7FF" d="M33 35h4m42 0h4m-51 1h1m4 0h1m40 0h1m4 0h1m-47 6h1m45 0h1m-52 1h1m45 0h1"/><path stroke="#00A7F2" d="M33 36h1m2 0h1m42 0h1m2 0h1m-51 1h1m4 0h1m40 0h1m4 0h1m-52 1h1m4 0h1m40 0h1m4 0h1m-52 1h1m4 0h1m40 0h1m4 0h1m-52 1h1m4 0h1m40 0h1m4 0h1m-52 1h1m4 0h1m40 0h1m4 0h1m-52 1h1m45 0h1m-46 2h1m45 0h1"/><path stroke="#000000" d="M34 36h2m44 0h2m-49 1h4m42 0h4m-50 1h4m42 0h4m-50 1h4m42 0h4m-50 1h4m42 0h4m-50 1h4m42 0h4m-50 1h4m42 0h4m-50 1h4m42 0h4m-49 1h2m44 0h2"/></g><g class="hat"><path stroke="#000000" d="M6 0h1m6 0h1m65 0h1M6 1h1m6 0h1m66 0h2M6 2h1m6 0h1m68 0h2M6 3h1m7 0h1m69 0h1M6 4h1m7 0h1m70 0h1M7 5h1m7 0h1m70 0h1M7 6h1m7 0h1m71 0h1M7 7h1m7 0h1m71 0h1M7 8h1m7 0h1m72 0h1M7 9h1m7 0h1m72 0h1M7 10h1m7 0h1m72 0h1M6 11h1m8 0h1m72 0h1M6 12h1m7 0h1m72 0h1M6 13h1m7 0h1m72 0h4M5 14h1m7 0h1m77 0h7M5 15h1m7 0h1m84 0h2M4 16h1m7 0h1m-9 1h1m7 0h1m-9 1h1m7 0h1M3 19h1m7 0h1m-9 1h1m6 0h2m-9 1h1m4 0h2m1 0h1m-9 1h5m3 0h1m-1 1h1m-1 1h1m68 0h20m-88 1h1m55 0h12M9 26h6m46 0h7M6 27h3m47 0h5M3 28h3m43 0h7M1 29h2m38 0h8M0 30h1m33 0h7m-12 1h5m-9 1h4m-8 1h4m-7 1h3m-6 1h3m-8 1h5M5 37h5m-8 1h3m-5 1h2m96 0h2m-7 1h5m-10 1h5M7 48h7M0 49h7"/><path stroke="#E20624" d="M7 0h3M7 1h4M8 2h3m-1 1h1"/><path stroke="#E5AAEB" d="M10 0h3m1 0h15M11 1h2m1 0h8m1 0h6M7 2h1m3 0h2m1 0h7m3 0h6M7 3h3m1 0h3m1 0h4m7 0h10M7 4h7m1 0h5m5 0h7m9 0h3M8 5h7m1 0h4m2 0h1m2 0h3m20 0h5M8 6h7m1 0h4m1 0h3m1 0h1m2 0h20m6 0h3M8 7h3m2 0h2m1 0h9m1 0h19M8 8h5m3 0h8m1 0h15M8 9h6m2 0h20M8 10h7m1 0h17M7 11h8m1 0h9m60 0h3M7 12h7m1 0h9m58 0h5M7 13h7m1 0h7m56 0h2M6 14h7m1 0h7m46 0h8m5 0h6M6 15h7m1 0h6m55 0h3M5 16h7m1 0h6m41 0h10M5 17h4m4 0h6M5 18h5m3 0h6m32 0h2M4 19h5m3 0h7m31 0h1M4 20h5m3 0h8m28 0h1M4 21h4m4 0h9m24 0h2m-35 1h12m19 0h1m-32 1h14m5 0h5m4 0h1m-28 1h17m6 0h1m-21 1h9m5 0h3m-8 1h3m-8 1h2M7 28h3m-7 1h3m-5 1h3m20 2h1m-8 2h1m-4 1h1m-6 1h1m-6 1h1m-4 1h1"/><path stroke="#FFE4E7" d="M29 0h9m40 0h1M29 1h11m39 0h1M30 2h13m38 0h1M36 3h9m38 0h1M44 4h7m2 1h3m29 0h1M57 6h4m23 0h3M45 7h3m34 0h5M40 8h2m38 0h8M36 9h3m37 0h12m-55 1h2m13 0h40m-44 1h41m-51 1h48m-60 1h1m7 0h48m-57 1h2m6 0h29m2 0h7m-47 1h2m6 0h24m3 0h2m3 0h2m16 0h8m9 0h3m-79 1h3m6 0h25m17 0h15m14 0h1m-81 1h3m6 0h26m6 0h24m-65 1h3m6 0h23m12 0h20m-64 1h3m7 0h5m1 0h14m16 0h15m-60 1h2m8 0h3m2 0h12m2 0h1m-29 1h2m11 0h10m3 0h1m-15 1h8m3 0h2m-5 1h2m45 0h12m-63 1h4m30 0h9m-47 1h6m22 0h7m-40 1h8m22 0h3m-39 1h10m21 0h3m-46 1h19m16 0h4M6 29h22m10 0h3M4 30h1m2 0h2m2 0h14m7 0h2M0 31h5m6 0h18M0 32h5m6 0h13M0 33h4m8 0h9M0 34h3m9 0h5M0 35h6m3 0h5M0 36h7m-7 1h4m-4 1h1"/><path stroke="#FEFFF5" d="M38 0h23m12 0h5M40 1h22m12 0h5M43 2h19m13 0h6M45 3h16m6 0h4m4 0h8M51 4h10m3 0h21M56 5h5m2 0h22M61 6h23M48 7h34M42 8h38M39 9h37m-41 1h13m-16 1h12m51 5h4m-10 1h2m5 0h4m-17 1h1m3 0h6m3 0h4m-49 1h1m12 0h1m15 0h15m1 0h4m-50 1h2m11 0h37m-52 1h4m9 0h39m-54 1h12m3 0h39m-57 1h16m2 0h27m-47 1h30m-32 1h22m-25 1h22m-26 1h21m-24 1h16m-17 1h10m-13 1h7"/><path stroke="#FDE06D" d="M61 0h12M62 1h12M62 2h13M61 3h6m4 0h4M61 4h3m-3 1h2"/><path stroke="#06E267" d="M22 1h1m-2 1h3m-5 1h7m-6 1h5m-5 1h2m1 0h2m-5 1h1m3 0h1"/><path stroke="#8765FF" d="M32 4h9M28 5h20M26 6h2m20 0h6M11 7h2m12 0h1M13 8h2m9 0h1M14 9h1m65 4h5m-10 1h5m-18 1h13m-26 4h1m-3 1h1m-4 1h1m-4 1h2m-7 1h4m-28 1h1m17 0h6m-23 1h3m9 0h5m50 0h20m-85 1h10m43 0h32M9 27h11m41 0h11m8 0h20M6 28h1m49 0h14m12 0h18m-51 1h20m14 0h17m-57 1h25m16 0h16m-56 1h23m18 0h15m-54 1h20m20 0h14m-13 1h13m-13 1h13m-12 1h12m-85 1h1m72 0h12m-90 1h6m73 0h11M5 38h11m73 0h11M2 39h13m74 0h9M0 40h15m74 0h4M0 41h15M0 42h15M0 43h15M0 44h15M0 45h15M0 46h14M0 47h14M0 48h7"/><path stroke="#FF3BBA" d="M25 11h4m-5 1h1m-1 10h6m-4 1h5"/><path stroke="#FF53F7" d="M29 11h3m-7 1h9m-11 1h7m-7 1h6m-7 1h6m-6 1h6m-6 1h6m-6 1h6m-6 1h7m5 0h1m-13 1h8m3 0h2m-12 1h11m-4 1h3"/><path stroke="#B7002B" d="M85 13h2"/><path stroke="#0465FF" d="M58 14h2m-8 1h3m2 0h3m-7 1h7m-5 1h5m-7 1h10"/><path stroke="#E20C06" d="M86 14h5"/><path stroke="#FD4E1F" d="M86 15h3m4 0h2m-10 1h2m-3 1h1"/><path stroke="#FD9D6D" d="M89 15h4m-6 1h8m-10 1h4m2 0h5m-12 1h3m6 0h3m-1 1h1"/><path stroke="#E27306" d="M9 17h3m-2 1h2m-3 1h2m-2 1h1"/><path stroke="#004E91" d="M54 17h1"/><path stroke="#6B95FF" d="M52 19h12m-12 1h11m-11 1h9m-3 1h3m-2 1h2"/><path stroke="#60E6FF" d="M5 30h2m2 0h2m-6 1h6m-6 1h6m-7 1h8m-9 1h9m-6 1h3m-2 1h2"/></g><g class="eyewear"><path stroke="#000000" d="M24 29h17m29 0h17m-67 1h4m17 0h3m23 0h3m17 0h3m-73 1h3m24 0h2m19 0h2m23 0h6m-80 1h1m29 0h2m16 0h1m30 0h1m-49 1h1m14 0h2m31 0h1m-80 1h1m31 0h14m33 0h1m-80 1h1m76 0h3m-80 1h2m74 0h1m-75 1h1m73 0h1m-75 1h1m28 0h16m29 0h1m-75 1h1m28 0h1m15 0h1m28 0h1m-75 1h1m27 0h1m16 0h1m28 0h1m-75 1h1m27 0h1m16 0h1m28 0h1m-74 1h1m26 0h1m16 0h1m27 0h1m-73 1h1m25 0h1m18 0h1m26 0h1m-73 1h1m25 0h1m18 0h1m26 0h1m-73 1h1m25 0h1m18 0h1m26 0h1m-73 1h1m24 0h1m20 0h1m24 0h1m-71 1h1m23 0h1m20 0h1m24 0h1m-71 1h1m23 0h1m21 0h1m23 0h1m-71 1h1m22 0h1m22 0h1m22 0h1m-69 1h1m21 0h1m23 0h1m21 0h1m-68 1h2m17 0h2m25 0h2m17 0h2m-65 1h17m29 0h17"/><path stroke="#FFDD02" d="M24 30h11m2 0h3m30 0h11m3 0h2m-64 1h2m17 0h1m1 0h1m23 0h3m16 0h1m1 0h1m-71 1h3m22 0h1m1 0h1m19 0h2m22 0h3m-74 1h1m27 0h1m17 0h1m26 0h1m1 0h1m-48 1h2m14 0h2m-18 1h8m3 0h6m-17 1h1"/><path stroke="#FFF7C1" d="M35 30h2m44 0h3m-42 1h1m44 0h1m-44 1h1m47 1h1m-39 2h3"/><path stroke="#FFB21E" d="M40 30h1m45 0h1m-67 1h2m2 0h1m15 0h1m48 0h1m2 1h2m-77 1h1m1 0h1m25 0h1m44 0h1m3 0h1m-78 1h2m72 0h4m-32 1h1m28 0h1m-46 1h16m-17 1h1m-4 11h1m-2 1h1m-2 1h2m26 0h1m18 0h1m-63 1h15m29 0h17"/><path stroke="#150861" d="M25 31h14m32 0h14m-63 1h3m15 0h2m26 0h3m15 0h2m-67 1h1m44 0h2m-47 1h1m43 0h1m-46 1h1m44 0h1m-46 1h1m44 0h1m-46 1h1m44 0h1m-46 1h1m44 0h1m-46 1h1m44 0h1m-46 1h1m44 0h1m-46 1h1m44 0h1m-45 1h1m22 0h1m21 0h1m-46 1h1m44 0h1m22 0h1m-69 1h1m44 0h1m-46 1h1m21 0h1m23 0h1m-46 1h1m44 0h1m20 0h1m-67 1h1m19 0h1m-21 1h1m45 0h1m-28 1h1m-2 1h1"/><path stroke="#A7280C" d="M39 31h1m45 0h1m-44 1h1m45 0h1m-73 1h1m26 0h1m45 0h1m-70 1h1m69 0h1m-46 1h1m44 0h1m-46 1h1m44 0h1m-46 1h1m44 0h1m-46 1h1m44 0h1m-46 1h1m44 0h1m-46 1h1m44 0h1m-1 1h1m-26 1h1m0 3h1m22 0h1m-69 1h1m45 1h1m20 1h1m-67 1h1"/><path stroke="#E97632" d="M70 31h1m-54 1h1m3 0h1m45 0h1m26 0h1m-75 1h1m23 0h1m20 0h1m-47 1h1m25 0h1m18 0h1m-48 1h3m44 0h1m26 0h1m-74 1h2m43 0h2m26 0h1m-73 1h1m27 0h18m26 0h1m-73 1h1m26 0h1m16 0h2m26 0h1m-73 1h1m26 0h1m17 0h1m26 0h1m-73 1h1m44 0h1m26 0h1m-73 1h1m25 0h1m18 0h1m26 0h1m-72 1h1m24 0h1m18 0h1m25 0h1m-71 1h1m23 0h1m20 0h1m24 0h1m-71 1h1m23 0h1m20 0h1m24 0h1m-71 1h1m23 0h1m20 0h1m24 0h1m-71 1h1m22 0h1m22 0h1m22 0h1m-69 1h1m21 0h1m22 0h1m22 0h1m-69 1h1m20 0h1m24 0h1m21 0h1m-69 1h1m45 0h2m19 0h1m-67 1h2m44 0h1m18 0h1m-64 1h2"/><path stroke="#221691" d="M25 32h15m31 0h12m-61 1h16m30 0h15m-61 1h16m28 0h17m-62 1h17m28 0h17m-62 1h17m28 0h17m-62 1h17m28 0h17m-62 1h17m28 0h17m-62 1h17m28 0h17m-62 1h17m28 0h17m-62 1h17m6 0h1m21 0h17m-61 1h16m29 0h16m6 0h1m-68 1h16m5 0h1m23 0h16m-55 1h10m5 0h1m23 0h2m5 0h9m-55 1h10m4 0h1m31 0h9m5 0h1m-47 1h1m25 1h1m-28 1h1m45 0h1m-19 1h1m16 0h1m-50 1h3m30 0h1m13 0h2"/><path stroke="#518DF2" d="M83 32h3m-48 1h1m3 0h1m40 0h1m4 0h1m-51 1h1m5 0h1m38 0h1m5 0h1m-52 1h1m44 0h1m-46 1h1m44 0h1m-46 1h1m44 0h1m-46 1h1m44 0h1m-46 1h1m44 0h1m-46 1h1m5 0h1m38 0h1m5 0h1m-52 1h1m44 0h1m5 0h1m-52 1h1m4 0h1m39 0h1m-46 1h5m40 0h6m-51 1h5m40 0h6m-66 1h4m11 0h4m26 0h5m10 0h5m-65 1h4m41 0h5m-50 1h4m45 0h1m-47 1h1m42 0h1m2 0h1m-50 1h1m2 0h1m43 0h1m1 0h1m-49 1h1m1 0h1m44 0h2"/><path stroke="#9AD5FF" d="M39 33h3m42 0h4m-49 1h5m40 0h5m-50 1h6m39 0h6m-51 1h6m39 0h6m-51 1h6m39 0h6m-51 1h6m39 0h6m-51 1h6m39 0h6m-51 1h5m40 0h5m-50 1h5m40 0h5m-50 1h4m41 0h5m-20 5h3m-49 1h3m44 0h2m-48 1h2m45 0h1m-47 1h1"/><path stroke="#273CB7" d="M22 44h6m41 0h5m-52 1h1m4 0h1m45 0h1m-47 1h15m31 0h15m-61 1h15m31 0h15m-61 1h14m32 0h14m-60 1h14m32 0h13m-59 1h10m36 0h11"/><path stroke="#202135" d="M89 44h1m-2 3h1m-2 2h1m-2 1h1"/></g><g class="clothes"><path stroke="#000000" d="M11 83h2m69 0h1M9 84h3m71 0h2M8 85h2m75 0h1M7 86h2m3 0h2m72 0h1M6 87h2m5 0h3m62 0h1m7 0h2M6 88h1m9 0h2m60 0h1m8 0h2M6 89h1m11 0h2m57 0h1m10 0h1M6 90h1m13 0h2m54 0h1m12 0h1M5 91h1m16 0h1m53 0h1m12 0h2M5 92h1m17 0h3m49 0h1m10 0h4m1 0h3M4 93h2m15 0h7m47 0h1m7 0h3m8 0h1M3 94h3m6 0h9m3 0h1m3 0h3m43 0h1m5 0h3m11 0h1M2 95h1m2 0h7m11 0h1m7 0h2m41 0h1m3 0h2M1 96h1m21 0h1m9 0h2m39 0h4m17 0h1M0 97h1m21 0h1m12 0h2m36 0h1m4 0h7m-63 1h1m14 0h1m35 0h1m12 0h2m8 0h1m-76 1h1m16 0h2m32 0h1m14 0h1"/><path stroke="#202135" d="M12 84h1m68 0h1m-72 1h4m66 0h2m2 0h1M9 86h3m67 0h3m3 0h1M8 87h2m69 0h4M7 88h3m5 0h1m63 0h4M7 89h5m66 0h6M7 90h7m63 0h7m4 0h1M6 91h1m3 0h7m60 0h7m4 0h1M6 92h1m3 0h9m57 0h6m8 0h1M6 93h1m3 0h2m64 0h4m2 0h1m6 0h2m-80 1h1m14 0h2m47 0h3m7 0h6M4 95h1m13 0h5m3 0h1m50 0h1m4 0h9m-80 1h12m2 0h2m51 0h13M4 97h1m3 0h14m3 0h4m45 0h1m10 0h6M3 98h4m3 0h11m3 0h8m42 0h2m12 0h2m2 0h2M2 99h7m2 0h10m3 0h9m40 0h6m9 0h2m2 0h2"/><path stroke="#333553" d="M82 84h1m-1 1h2m-2 1h3m-75 1h3m70 0h1m1 0h1m-76 1h1m72 0h1m2 0h1m0 1h1m-74 1h1m67 2h4m-74 1h9m59 0h2m9 0h3M6 94h5m67 0h2m13 0h1M3 95h1m20 0h2m1 0h4m44 0h2m17 0h1M2 96h1m1 0h2m18 0h1m2 0h1m4 0h1M3 97h1m1 0h2m16 0h2m50 0h1m1 0h1m14 0h1m2 0h1M0 98h1m1 0h1m4 0h1m15 0h1m12 0h1m39 0h1m1 0h1m5 0h2m4 0h1M0 99h2m20 0h2m55 0h3m4 0h1m3 0h1m5 0h1"/><path stroke="#7078B1" d="M84 87h1m-72 1h1m0 1h4m-2 1h4m-2 1h4m65 0h1m-68 1h2m69 2h2m-2 1h2m-63 1h2m59 0h3m-63 1h4m56 0h1m1 0h2M8 98h1m24 0h3m44 0h3m8 0h1m2 0h2m-86 1h1m24 0h2m45 0h3m10 0h1"/><path stroke="#525578" d="M11 88h2m1 0h1m69 0h2m-74 1h2m1 1h1m71 0h1m-71 1h1m1 1h1m2 0h1m70 3h1M3 96h1m24 0h2m64 0h1M1 97h2m4 0h1m21 0h2m45 0h1M1 98h1m7 0h1m22 0h1m44 0h1m1 0h1m3 0h1M9 99h1m23 0h2m2 0h1m47 0h1m5 0h1m2 0h1"/><path stroke="#B8AFA2" d="M84 89h1m1 0h1M7 91h1m1 0h1m74 0h1m1 0h1M7 93h1m1 0h1"/><path stroke="#FFFFFF" d="M85 89h1m0 1h1M8 91h1m0 1h1"/><path stroke="#DFDECD" d="M84 90h2m-1 1h1M7 92h2m-1 1h1"/><path stroke="#111221" d="M86 93h3m-68 1h3m1 0h1m57 0h2m-73 1h6m62 0h2M6 96h5m10 2h1"/></g><style> @keyframes cycle-color-10418522971467150311652027315186243265913946503772757977603137273639328988845345154 {0%,100%{filter: hue-rotate(0deg);}50%{filter:hue-rotate(90deg);}}#froggi-10418522971467150311652027315186243265913946503772757977603137273639328988845345154 .egg,#froggi-10418522971467150311652027315186243265913946503772757977603137273639328988845345154 .body,#froggi-10418522971467150311652027315186243265913946503772757977603137273639328988845345154 .expression{ animation:cycle-color-10418522971467150311652027315186243265913946503772757977603137273639328988845345154  5s linear infinite;transform-origin: bottom center;}</style></svg>